<svg width="102" height="19" viewBox="0 0 102 19" fill="none" xmlns="http://www.w3.org/2000/svg">
<g clip-path="url(#clip0)">
<path d="M14.5547 7.40783C14.5547 7.63402 14.5547 7.86021 14.5547 8.02985C14.5547 8.0864 14.5547 8.08639 14.5547 8.14294C14.4972 8.48222 14.4972 8.82152 14.4397 9.10425C14.0945 10.631 13.3466 11.9882 12.081 13.006C10.9879 13.9108 9.72225 14.4763 8.28401 14.6459C7.53613 14.7025 6.78824 14.7025 6.04036 14.5328C4.31447 14.1935 2.93375 13.3453 1.89822 11.9882C0.575039 10.3483 0.172339 8.42569 0.575046 6.38998C0.862694 4.86319 1.61057 3.56258 2.76116 2.54473C3.85423 1.58342 5.17741 1.01794 6.61566 0.791747C7.36354 0.678652 8.16895 0.735206 8.91684 0.904849C10.7003 1.30068 12.1385 2.20544 13.2316 3.67568C13.8644 4.58044 14.3246 5.54176 14.4397 6.61616C14.4972 6.84235 14.4972 7.12509 14.5547 7.40783ZM5.35 4.12807C5.35 4.18462 5.35 4.1846 5.35 4.1846C5.35 5.3721 5.35 6.50306 5.35 7.69056C5.35 7.80366 5.35 7.97331 5.40753 8.0864C5.69518 9.2739 6.90331 10.009 8.11143 9.72628C9.20449 9.44354 9.95237 8.31259 9.66472 7.23819C9.4346 6.33343 8.74425 5.71139 7.82378 5.5983C7.36354 5.54175 6.96083 5.65485 6.61566 5.99414C6.55813 6.05068 6.55812 6.05069 6.50059 6.10724C6.50059 5.42867 6.50059 4.80664 6.50059 4.12807C6.04035 4.12807 5.69517 4.12807 5.35 4.12807ZM5.06235 9.72628C5.06235 9.66973 5.06235 9.66973 5.06235 9.66973C5.06235 8.93461 5.06235 8.25605 5.06235 7.52093C5.06235 7.46438 5.06235 7.35127 5.06235 7.29472C4.88976 6.27687 3.91176 5.48521 2.8187 5.48521C2.18587 5.48521 1.66811 5.76794 1.20788 6.22032C0.632579 6.89889 0.517524 7.86021 0.97776 8.65188C1.38047 9.2739 1.89823 9.61319 2.64612 9.72628C3.04882 9.78283 3.45153 9.66973 3.73917 9.38699C3.7967 9.33045 3.85423 9.2739 3.96929 9.16081C3.96929 9.33045 3.96929 9.55664 3.96929 9.72628C4.372 9.72628 4.71717 9.72628 5.06235 9.72628ZM14.2096 7.18164C14.0945 6.44652 13.3466 5.54176 12.196 5.48521C11.0454 5.42866 10.0674 6.38998 10.0099 7.52093C9.95237 8.65188 10.8728 9.61318 12.0234 9.66973C13.2316 9.72628 14.0945 8.82152 14.2096 8.02985C13.8644 8.02985 13.5192 8.02985 13.174 8.02985L13.1165 8.0864C12.8864 8.59533 12.2536 8.76497 11.7358 8.59533C11.218 8.42569 10.9304 7.8602 11.103 7.35127C11.218 6.89889 11.5632 6.61616 11.9659 6.55961C12.4261 6.50306 12.8864 6.72925 13.1165 7.12509C13.174 7.18164 13.174 7.18164 13.2316 7.18164C13.3466 7.18164 13.4617 7.18164 13.5767 7.18164C13.8069 7.18164 14.037 7.18164 14.2096 7.18164Z" fill="#B7C0C4"/>
<path d="M6.44287 7.57733C6.44287 6.95531 6.96063 6.50293 7.53593 6.50293C8.11123 6.50293 8.62899 7.01185 8.62899 7.57733C8.62899 8.14281 8.11123 8.65175 7.53593 8.65175C6.9031 8.65175 6.44287 8.19935 6.44287 7.57733Z" fill="#B7C0C4"/>
<path d="M3.96932 7.57731C4.02685 8.14279 3.50909 8.65171 2.9338 8.70826C2.30097 8.76481 1.7832 8.31243 1.7832 7.63386C1.7832 7.06838 2.1859 6.55946 2.81873 6.55946C3.45156 6.50291 3.91179 6.95529 3.96932 7.57731Z" fill="#B7C0C4"/>
<path d="M44.5276 2.88406C44.5276 3.73228 44.2975 4.41085 43.8372 4.86323C43.377 5.31561 42.7442 5.54181 41.8812 5.54181C41.0183 5.54181 40.3854 5.31561 39.9252 4.86323C39.465 4.41085 39.2349 3.73228 39.2349 2.88406C39.2349 2.03585 39.465 1.35728 39.9252 0.904897C40.3854 0.452516 41.0183 0.226318 41.8812 0.226318C42.7442 0.226318 43.377 0.452516 43.8372 0.904897C44.2975 1.35728 44.5276 2.03585 44.5276 2.88406ZM40.7882 2.88406C40.7882 3.90192 41.1333 4.41086 41.8812 4.41086C42.2839 4.41086 42.5141 4.29775 42.6866 4.01502C42.8592 3.78883 42.9743 3.39299 42.9743 2.88406C42.9743 2.37513 42.8592 1.9793 42.6866 1.75311C42.5141 1.52692 42.2264 1.35727 41.8812 1.35727C41.1909 1.35727 40.7882 1.86621 40.7882 2.88406Z" fill="#B7C0C4"/>
<path d="M50.6257 2.88406C50.6257 3.73228 50.3956 4.41085 49.9354 4.86323C49.4751 5.31561 48.8423 5.54181 47.9794 5.54181C47.1164 5.54181 46.4836 5.31561 46.0234 4.86323C45.5631 4.41085 45.333 3.73228 45.333 2.88406C45.333 2.03585 45.5631 1.35728 46.0234 0.904897C46.4836 0.452516 47.1164 0.226318 47.9794 0.226318C48.8423 0.226318 49.4751 0.452516 49.9354 0.904897C50.3956 1.35728 50.6257 2.03585 50.6257 2.88406ZM46.8863 2.88406C46.8863 3.90192 47.2315 4.41086 47.9794 4.41086C48.3821 4.41086 48.6122 4.29775 48.7848 4.01502C48.9574 3.78883 49.0724 3.39299 49.0724 2.88406C49.0724 2.37513 48.9574 1.9793 48.7848 1.75311C48.6122 1.52692 48.3245 1.35727 47.9794 1.35727C47.2315 1.35727 46.8863 1.86621 46.8863 2.88406Z" fill="#B7C0C4"/>
<path d="M56.2639 2.77096C56.2639 3.61918 56.0338 4.29775 55.516 4.75013C54.9982 5.20251 54.3079 5.42871 53.3874 5.42871H51.604V0.226318H53.5025C54.3654 0.226318 55.0558 0.452512 55.516 0.848346C55.9762 1.35727 56.2639 1.97929 56.2639 2.77096ZM54.7106 2.82751C54.7106 2.37513 54.5955 1.9793 54.4229 1.75311C54.2504 1.52692 53.9052 1.41382 53.5025 1.41382H53.0422V4.29775H53.3874C53.8476 4.29775 54.1353 4.18465 54.3654 3.90191C54.5955 3.73227 54.7106 3.33644 54.7106 2.82751Z" fill="#B7C0C4"/>
<path d="M61.5564 5.48535L60.4633 1.7532H60.4058C60.4633 2.37522 60.4633 2.88416 60.4633 3.22344V5.48535H59.1401V0.282959H61.0962L62.2468 3.95855H62.3043L63.3973 0.282959H65.3533V5.48535H63.9726V3.22344C63.9726 3.11035 63.9726 2.99724 63.9726 2.8276C63.9726 2.65796 63.9726 2.31868 64.0302 1.7532H63.9726L62.8796 5.48535H61.5564Z" fill="#B7C0C4"/>
<path d="M71.6814 2.88406C71.6814 3.73228 71.4513 4.41085 70.991 4.86323C70.5308 5.31561 69.898 5.54181 69.035 5.54181C68.1721 5.54181 67.5393 5.31561 67.079 4.86323C66.6188 4.41085 66.3887 3.73228 66.3887 2.88406C66.3887 2.03585 66.6188 1.35728 67.079 0.904897C67.5393 0.452516 68.1721 0.226318 69.035 0.226318C69.898 0.226318 70.5308 0.452516 70.991 0.904897C71.4513 1.35728 71.6814 2.03585 71.6814 2.88406ZM67.942 2.88406C67.942 3.90192 68.2872 4.41086 69.035 4.41086C69.4377 4.41086 69.6679 4.29775 69.8404 4.01502C70.013 3.78883 70.1281 3.39299 70.1281 2.88406C70.1281 2.37513 70.013 1.9793 69.8404 1.75311C69.6679 1.52692 69.3802 1.35727 69.035 1.35727C68.3447 1.35727 67.942 1.86621 67.942 2.88406Z" fill="#B7C0C4"/>
<path d="M74.1554 3.61927V5.48535H72.6597V0.282959H74.4431C75.9389 0.282959 76.6867 0.791895 76.6867 1.80975C76.6867 2.43178 76.3991 2.88416 75.7663 3.22344L77.3771 5.48535H75.7087L74.5582 3.61927H74.1554ZM74.1554 2.54486H74.4431C74.9609 2.54486 75.191 2.31867 75.191 1.92284C75.191 1.58355 74.9609 1.35736 74.4431 1.35736H74.1554V2.54486Z" fill="#B7C0C4"/>
<path d="M83.0725 5.48526H81.1165L79.103 1.80966H79.0454C79.103 2.37514 79.103 2.82751 79.103 3.11025V5.42871H77.7798V0.226318H79.7358L81.7493 3.84538C81.6918 3.33645 81.6918 2.88406 81.6918 2.60133V0.282869H83.015L83.0725 5.48526Z" fill="#B7C0C4"/>
<path d="M84.2231 5.48535V0.282959H85.7189V5.48535H84.2231Z" fill="#B7C0C4"/>
<path d="M92.1047 5.48526H90.1487L88.1352 1.80966H88.0777C88.1352 2.37514 88.1352 2.82751 88.1352 3.11025V5.42871H86.812V0.226318H88.768L90.7816 3.84538C90.724 3.33645 90.724 2.88406 90.724 2.60133V0.282869H92.0472L92.1047 5.48526Z" fill="#B7C0C4"/>
<path d="M58.1624 18.8305H50.9712V7.35132H58.1624V9.83941H54.2504V11.6489H57.8747V14.137H54.2504V16.2859H58.1624V18.8305Z" fill="#B7C0C4"/>
<path d="M64.0302 14.646V18.8305H60.751V7.35132H64.7205C67.9997 7.35132 69.6681 8.48227 69.6681 10.7442C69.6681 12.1013 68.9777 13.1192 67.597 13.8543L71.1638 18.8305H67.4244L64.8356 14.646H64.0302ZM64.0302 12.3275H64.663C65.8136 12.3275 66.3889 11.8186 66.3889 10.9138C66.3889 10.1222 65.8136 9.72633 64.7205 9.72633H64.0877L64.0302 12.3275Z" fill="#B7C0C4"/>
<path d="M72.7173 18.8305V7.35132H75.9965V18.8305H72.7173Z" fill="#B7C0C4"/>
<path d="M84.4535 9.72635C83.648 9.72635 83.0728 10.0091 82.6125 10.6311C82.1523 11.2531 81.9797 12.0448 81.9797 13.1192C81.9797 15.3246 82.8426 16.4555 84.6261 16.4555C85.1438 16.4555 85.6616 16.399 86.1793 16.2293C86.6971 16.1162 87.1573 15.9466 87.6751 15.7204V18.3216C86.6396 18.774 85.489 18.9436 84.2233 18.9436C82.3824 18.9436 81.0017 18.4347 80.0237 17.4168C79.0457 16.399 78.5854 14.9287 78.5854 13.0627C78.5854 11.8752 78.8156 10.8573 79.2758 9.89598C79.736 8.99122 80.4264 8.31266 81.3469 7.80373C82.2098 7.2948 83.3029 7.0686 84.511 7.0686C85.8342 7.0686 87.0998 7.35134 88.2504 7.86027L87.2724 10.2918C86.8122 10.1222 86.3519 9.89599 85.9492 9.7829C85.4315 9.83945 84.9712 9.72635 84.4535 9.72635Z" fill="#B7C0C4"/>
<path d="M97.9729 18.8304L97.3976 16.6816H93.4281L92.7953 18.8304H89.1709L93.1404 7.29468H97.5127L101.54 18.8304H97.9729ZM96.7073 14.1369L96.1895 12.2709C96.0745 11.875 95.9019 11.3096 95.7293 10.631C95.5567 9.95243 95.4416 9.50005 95.3841 9.21731C95.3266 9.50005 95.2115 9.89587 95.0964 10.5179C94.9239 11.1399 94.6362 12.3274 94.1184 14.1369H96.7073Z" fill="#B7C0C4"/>
<path d="M26.8661 -0.0563965H17.086L14.7273 4.97636C15.015 5.82457 15.1875 6.72932 15.1875 7.63408C15.1875 10.9704 13.059 13.8543 10.0099 14.9853L8.16895 18.8871H16.2231L17.6038 15.3811H26.4058L27.729 18.8871H35.7256L26.8661 -0.0563965ZM19.1571 11.14C20.3077 8.19957 20.998 6.2204 21.3432 5.20254C21.6884 4.18469 21.9185 3.44956 21.9761 3.05372C22.0911 3.5061 22.3788 4.29777 22.7239 5.37218C23.0691 6.44658 23.4718 7.35135 23.7019 8.02992L24.8525 11.14H19.1571Z" fill="#B7C0C4"/>
<path d="M43.5496 7.35132L41.0758 15.4942H41.0183L38.487 7.35132H34.1147V12.6668L37.0488 18.8305V13.9108C37.0488 13.1192 36.9912 12.0448 36.8762 10.6311H36.9337L39.4075 18.887H42.5141L44.9879 10.6311H45.0454C44.9878 11.8751 44.9303 12.6668 44.9303 12.9495C44.9303 13.2888 44.9303 13.5716 44.9303 13.7977V18.8305H47.9218V7.35132H43.5496Z" fill="#B7C0C4"/>
<path d="M36.9338 2.43183V3.50623V3.73242V4.35444C36.7612 4.41099 36.5311 4.41099 36.301 4.41099C35.8983 4.41099 35.6106 4.29789 35.3805 4.01515C35.1504 3.78896 35.0929 3.39313 35.0929 2.8842C35.0929 2.37527 35.2079 2.03599 35.438 1.75325C35.6682 1.47051 36.0133 1.35741 36.416 1.35741C36.8763 1.35741 37.3365 1.4705 37.7392 1.64015L38.1994 0.509194C37.9693 0.396099 37.6817 0.339554 37.394 0.283007C37.1064 0.226459 36.7612 0.169922 36.416 0.169922C35.4956 0.169922 34.8052 0.396102 34.2874 0.848483C33.7697 1.30086 33.5396 1.97944 33.5396 2.82765C33.5396 3.67586 33.7697 4.35444 34.2299 4.80682C34.6901 5.2592 35.323 5.48539 36.1859 5.48539C36.9338 5.48539 37.6817 5.3723 38.3145 5.20266V2.43183H36.9338Z" fill="#B7C0C4"/>
<path d="M96.4191 2.43174V3.50614V3.73233V4.2978C96.2466 4.35435 96.0164 4.35435 95.7863 4.35435C95.3836 4.35435 95.096 4.24125 94.8658 3.95851C94.6357 3.73232 94.5782 3.33649 94.5782 2.82756C94.5782 2.31863 94.6933 1.97935 94.9234 1.69661C95.1535 1.41387 95.4987 1.30078 95.9014 1.30078C96.3616 1.30078 96.8218 1.41388 97.2245 1.58352L97.6848 0.45257C97.4547 0.339475 97.167 0.282914 96.8794 0.226366C96.5917 0.169819 96.2465 0.113281 95.9014 0.113281C94.9809 0.113281 94.2905 0.339461 93.7728 0.791842C93.255 1.24422 93.0249 1.92279 93.0249 2.77101C93.0249 3.61922 93.255 4.29779 93.7152 4.75018C94.1755 5.20256 94.8083 5.42875 95.6713 5.42875C96.4191 5.42875 97.167 5.31566 97.7998 5.14602V2.37519H96.4191V2.43174Z" fill="#B7C0C4"/>
</g>
<defs>
<clipPath id="clip0">
<rect width="102" height="19" fill="white"/>
</clipPath>
</defs>
</svg>
