<svg width="24" height="24" viewBox="0 0 24 24" fill="none" xmlns="http://www.w3.org/2000/svg">
<path d="M14.2427 22.737C14.0427 22.737 13.8537 22.659 13.7127 22.517L10.7297 19.534C10.5847 19.407 10.4927 19.203 10.4927 18.99C10.4927 18.979 10.4927 18.968 10.4937 18.957C10.4977 18.875 10.5137 18.799 10.5417 18.726C10.5447 18.719 10.5547 18.693 10.5577 18.686C10.5867 18.622 10.6247 18.561 10.6707 18.507C10.6837 18.489 10.6987 18.471 10.7127 18.457L13.7127 15.457C13.8547 15.315 14.0427 15.237 14.2427 15.237C14.4427 15.237 14.6317 15.315 14.7727 15.457C15.0647 15.749 15.0647 16.225 14.7727 16.518L13.0567 18.234C16.7877 18.081 19.8347 15.228 20.2057 11.478C20.2437 11.099 20.5727 10.802 20.9557 10.802C20.9777 10.802 21.0007 10.803 21.0237 10.805C21.4377 10.846 21.7397 11.214 21.6987 11.625C21.2507 16.148 17.5597 19.583 13.0507 19.734L14.7727 21.456C15.0647 21.748 15.0647 22.224 14.7727 22.517C14.6307 22.659 14.4427 22.737 14.2427 22.737Z" fill="#85878A"/>
<path d="M20.6369 8.66198C20.5689 8.66198 20.4989 8.65198 20.4299 8.63198L16.3449 7.53698C15.9459 7.42998 15.7079 7.01798 15.8149 6.61898C15.9029 6.29098 16.2009 6.06298 16.5399 6.06298C16.6049 6.06298 16.6699 6.07198 16.7339 6.08798L19.0749 6.71498C17.7019 4.55798 15.3099 3.22998 12.7549 3.22998C11.6839 3.22998 10.6389 3.45598 9.65095 3.90298C9.55395 3.94798 9.44995 3.96998 9.34295 3.96998C9.04895 3.96998 8.78095 3.79698 8.65995 3.52898C8.57695 3.34698 8.56995 3.14298 8.64095 2.95598C8.71195 2.76798 8.85095 2.61998 9.03395 2.53698C10.2189 2.00098 11.4709 1.72998 12.7569 1.72998C15.8489 1.72998 18.7419 3.34898 20.3799 5.97598L21.0119 3.61898C21.0999 3.29198 21.3979 3.06298 21.7369 3.06298C21.8019 3.06298 21.8679 3.07198 21.9309 3.08898C22.3299 3.19598 22.5679 3.60798 22.4619 4.00698L21.3629 8.10498C21.3439 8.17798 21.3109 8.24998 21.2659 8.31998C21.2619 8.32598 21.2509 8.34298 21.2469 8.34898C21.2129 8.39898 21.1609 8.45398 21.1009 8.50098C21.0959 8.50498 21.0839 8.51398 21.0779 8.51798C21.0589 8.53298 21.0379 8.54798 21.0159 8.56098C20.9829 8.57998 20.9499 8.59398 20.9159 8.60598C20.9039 8.61098 20.8809 8.61998 20.8679 8.62398C20.7879 8.64898 20.7139 8.66098 20.6409 8.66198C20.6379 8.66198 20.6369 8.66198 20.6369 8.66198Z" fill="#85878A"/>
<path d="M7.93091 18.191C7.77391 18.191 7.62291 18.142 7.49391 18.051C3.80191 15.399 2.67491 10.483 4.80091 6.50401L2.44391 7.13601C2.38091 7.15301 2.31491 7.16101 2.24891 7.16101C1.90991 7.16101 1.61291 6.93201 1.52491 6.60501C1.47291 6.41201 1.49991 6.21001 1.59991 6.03601C1.69991 5.86301 1.86191 5.73801 2.05491 5.68701L6.15191 4.58901C6.21491 4.57201 6.28191 4.56201 6.34991 4.56201C6.48091 4.56201 6.60991 4.59701 6.72391 4.66201C6.90891 4.76901 7.03891 4.95101 7.08291 5.16201L8.16991 9.21701C8.22191 9.41001 8.19491 9.61301 8.09491 9.78601C7.99491 9.95901 7.83291 10.084 7.63991 10.135C7.57691 10.152 7.51191 10.161 7.44591 10.161C7.10691 10.161 6.80891 9.93201 6.72191 9.60501L6.09491 7.26801C4.36491 10.574 5.31091 14.636 8.36891 16.832C8.53191 16.949 8.63891 17.122 8.67191 17.32C8.70491 17.518 8.65791 17.716 8.54091 17.879C8.39991 18.074 8.17291 18.191 7.93091 18.191Z" fill="#85878A"/>
</svg>
