<svg width="24" height="24" viewBox="0 0 24 24" fill="none" xmlns="http://www.w3.org/2000/svg">
<g clip-path="url(#clip0)">
<path d="M12.4972 23.996C12.1632 23.996 11.8402 23.923 11.5372 23.779L5.43818 20.891C4.89518 20.634 4.48418 20.181 4.28118 19.614C4.07818 19.048 4.10918 18.437 4.36618 17.893C4.62318 17.349 5.07718 16.939 5.64318 16.736C5.88918 16.648 6.14418 16.603 6.40218 16.603C6.73518 16.603 7.05918 16.676 7.36418 16.821L13.4652 19.712C14.0082 19.969 14.4182 20.423 14.6212 20.989C14.8232 21.556 14.7922 22.166 14.5352 22.709C14.1632 23.491 13.3632 23.996 12.4972 23.996ZM6.40118 18.104C6.31518 18.104 6.23018 18.119 6.14818 18.148C5.95918 18.216 5.80718 18.353 5.72218 18.534C5.63618 18.715 5.62618 18.919 5.69418 19.108C5.76218 19.297 5.89918 19.448 6.08018 19.534L12.1792 22.423C12.2802 22.471 12.3882 22.495 12.4992 22.495C12.7882 22.495 13.0552 22.327 13.1782 22.066C13.2642 21.885 13.2742 21.681 13.2072 21.493C13.1402 21.304 13.0032 21.153 12.8222 21.067L6.72218 18.176C6.62018 18.129 6.51218 18.104 6.40118 18.104Z" fill="#974DB3"/>
<path d="M12.0088 7.49899C9.94079 7.49899 8.25879 5.81699 8.25879 3.74899C8.25879 1.68099 9.94079 -0.00100708 12.0088 -0.00100708C14.0768 -0.00100708 15.7588 1.68099 15.7588 3.74899C15.7588 5.81699 14.0768 7.49899 12.0088 7.49899ZM12.0088 1.49899C10.7678 1.49899 9.75879 2.50799 9.75879 3.74899C9.75879 4.98999 10.7678 5.99899 12.0088 5.99899C13.2498 5.99899 14.2588 4.98999 14.2588 3.74899C14.2588 2.50799 13.2498 1.49899 12.0088 1.49899Z" fill="#974DB3"/>
<path d="M15 15.749C13.759 15.749 12.75 14.74 12.75 13.499V12.749C12.75 12.335 13.086 11.999 13.5 11.999C13.914 11.999 14.25 12.335 14.25 12.749V13.499C14.25 13.913 14.586 14.249 15 14.249H15.75C16.982 14.223 17.974 13.228 18 11.983C17.974 10.763 16.979 9.77499 15.734 9.74799H8.25C7.018 9.77499 6.026 10.77 6 12.015C6.026 13.235 7.022 14.223 8.266 14.249H9C9.414 14.249 9.75 13.913 9.75 13.499V12.749C9.75 12.335 10.086 11.999 10.5 11.999C10.914 11.999 11.25 12.335 11.25 12.749V13.499C11.25 14.74 10.241 15.749 9 15.749H8.25C6.187 15.706 4.543 14.066 4.5 12.015C4.543 9.93999 6.183 8.29199 8.235 8.24899H15.751C17.814 8.29199 19.458 9.93199 19.501 11.983C19.458 14.058 17.818 15.706 15.767 15.749C15.764 15.749 15.762 15.749 15.759 15.749H15Z" fill="#974DB3"/>
<path d="M17.6304 20.924C17.3014 20.924 17.0134 20.713 16.9154 20.399C16.8554 20.208 16.8734 20.005 16.9654 19.827C17.0584 19.65 17.2144 19.519 17.4054 19.458C17.5964 19.398 17.7524 19.267 17.8454 19.089C17.9384 18.911 17.9564 18.708 17.8964 18.517C17.8364 18.326 17.7054 18.17 17.5274 18.077C17.4184 18.02 17.3024 17.992 17.1814 17.992C17.1054 17.992 17.0294 18.004 16.9554 18.027L16.2524 18.284L15.4984 18.592C15.4084 18.629 15.3124 18.648 15.2154 18.648C14.9094 18.648 14.6364 18.464 14.5204 18.181C14.4454 17.996 14.4464 17.792 14.5234 17.607C14.6014 17.422 14.7464 17.279 14.9314 17.204L15.7114 16.886L16.4904 16.602C16.7264 16.527 16.9544 16.492 17.1824 16.492C17.5404 16.492 17.8994 16.58 18.2204 16.748C18.7534 17.026 19.1464 17.495 19.3264 18.068C19.5064 18.64 19.4524 19.249 19.1744 19.783C18.8964 20.317 18.4284 20.71 17.8554 20.89C17.7824 20.913 17.7074 20.924 17.6304 20.924Z" fill="#974DB3"/>
</g>
<defs>
<clipPath id="clip0">
<rect width="24" height="24" fill="white"/>
</clipPath>
</defs>
</svg>
