<svg width="24" height="24" viewBox="0 0 24 24" fill="none" xmlns="http://www.w3.org/2000/svg">
<path d="M8.2591 17.24C8.1661 17.24 8.0751 17.223 7.9881 17.189C6.5041 16.614 5.3321 15.496 4.6881 14.039C4.0451 12.582 4.0071 10.963 4.5821 9.47797C5.4781 7.16297 7.6571 5.66797 10.1331 5.66797C10.5251 5.66797 10.9201 5.70697 11.3061 5.78397C11.7121 5.86497 11.9761 6.26097 11.8951 6.66597C11.8251 7.01597 11.5151 7.26897 11.1591 7.26897C11.1121 7.26897 11.0631 7.26497 11.0151 7.25497C10.7231 7.19697 10.4271 7.16697 10.1331 7.16697C8.2811 7.16697 6.6511 8.28597 5.9811 10.019C5.5511 11.13 5.5791 12.342 6.0611 13.432C6.5431 14.522 7.4201 15.359 8.5311 15.79C8.9161 15.939 9.1091 16.374 8.9601 16.76C8.8471 17.047 8.5661 17.24 8.2591 17.24Z" fill="#00A2E1"/>
<path d="M8.22008 21.557C8.16808 21.557 8.11708 21.552 8.06708 21.541C5.41908 20.988 3.14408 19.437 1.66308 17.174C0.181081 14.911 -0.329919 12.206 0.223081 9.55799C1.19808 4.88799 5.35908 1.49799 10.1191 1.49799C10.6581 1.49799 11.2031 1.54199 11.7401 1.62799C11.9381 1.65999 12.1111 1.76599 12.2291 1.92899C12.3471 2.09099 12.3941 2.28999 12.3621 2.48699C12.3041 2.84699 11.9861 3.11799 11.6231 3.11799C11.5831 3.11799 11.5421 3.11499 11.5011 3.10799C11.0461 3.03499 10.5811 2.99799 10.1221 2.99799C6.06808 2.99799 2.52308 5.88599 1.69208 9.86399C1.22108 12.12 1.65708 14.424 2.91908 16.352C4.18108 18.28 6.11908 19.601 8.37408 20.071C8.77908 20.156 9.03908 20.554 8.95508 20.959C8.88208 21.306 8.57308 21.557 8.22008 21.557Z" fill="#00A2E1"/>
<path d="M9.74805 12.609C9.54805 12.609 9.35905 12.531 9.21805 12.389C9.07605 12.247 8.99805 12.059 8.99805 11.859C8.99805 11.659 9.07605 11.47 9.21805 11.329L13.21 7.337L13.741 3.831C13.765 3.671 13.842 3.521 13.957 3.408L17.205 0.216C17.346 0.076 17.533 0 17.73 0C17.806 0 17.882 0.012 17.954 0.034C18.218 0.116 18.414 0.336 18.467 0.608L18.873 2.732L20.997 3.138C21.269 3.19 21.489 3.387 21.572 3.651C21.655 3.915 21.585 4.203 21.391 4.4L18.2 7.649C18.086 7.764 17.936 7.841 17.777 7.865L14.271 8.396L10.278 12.389C10.137 12.531 9.94805 12.609 9.74805 12.609ZM14.809 6.798L17.306 6.42L19.341 4.349L18.092 4.11C17.789 4.052 17.555 3.818 17.497 3.515L17.258 2.267L15.188 4.302L14.809 6.798Z" fill="#00A2E1"/>
<path d="M17.248 24C13.526 24 10.498 20.972 10.498 17.25C10.498 13.528 13.526 10.5 17.248 10.5C20.97 10.5 23.998 13.528 23.998 17.25C23.998 20.972 20.97 24 17.248 24ZM17.248 12C14.353 12 11.998 14.355 11.998 17.25C11.998 20.145 14.353 22.5 17.248 22.5C20.143 22.5 22.498 20.145 22.498 17.25C22.498 14.355 20.143 12 17.248 12Z" fill="#00A2E1"/>
<path d="M16.4138 20.429C16.0878 20.429 15.7768 20.325 15.5138 20.128C15.4578 20.086 15.4028 20.038 15.3518 19.987L13.8548 18.49C13.7128 18.348 13.6348 18.16 13.6348 17.96C13.6348 17.76 13.7128 17.571 13.8548 17.43C13.9968 17.289 14.1848 17.21 14.3848 17.21C14.5848 17.21 14.7738 17.288 14.9148 17.43L16.4148 18.93L19.3208 15.056C19.4618 14.868 19.6868 14.756 19.9208 14.756C20.0838 14.756 20.2398 14.808 20.3698 14.906C20.5298 15.026 20.6338 15.202 20.6628 15.4C20.6908 15.598 20.6408 15.796 20.5198 15.956L17.6148 19.83C17.3728 20.151 17.0218 20.359 16.6248 20.415C16.5558 20.424 16.4848 20.429 16.4138 20.429Z" fill="#00A2E1"/>
</svg>
