<svg width="24" height="24" viewBox="0 0 24 24" fill="none" xmlns="http://www.w3.org/2000/svg">
<g clip-path="url(#clip0)">
<path d="M10.8238 23.794C7.88477 23.74 5.13977 22.54 3.09577 20.418C1.05076 18.295 -0.0442354 15.508 0.0107646 12.569C0.120765 6.606 5.06277 1.754 11.0258 1.754C11.0958 1.754 11.1648 1.755 11.2348 1.756C11.5638 1.763 11.8828 1.903 12.1098 2.143C12.3378 2.383 12.4578 2.698 12.4488 3.029C12.4398 3.36 12.3028 3.668 12.0628 3.895C9.53977 6.277 8.51277 9.843 9.38077 13.201C10.2488 16.559 12.8748 19.179 16.2348 20.039C16.5588 20.12 16.8418 20.335 17.0088 20.629C17.3458 21.223 17.1358 21.981 16.5418 22.318C14.8718 23.284 12.9638 23.796 11.0288 23.796C10.9608 23.796 10.8918 23.796 10.8238 23.794ZM10.5718 3.265C5.62676 3.503 1.60276 7.598 1.50976 12.598C1.46276 15.136 2.40876 17.544 4.17577 19.378C5.94277 21.212 8.31277 22.248 10.8518 22.295C10.9148 22.296 10.9768 22.297 11.0398 22.297C12.4958 22.297 13.9368 21.959 15.2428 21.314C11.6518 20.166 8.87977 17.253 7.92977 13.577C6.97777 9.9 7.98976 6.008 10.5718 3.265Z" fill="#03AAE0"/>
<path fill-rule="evenodd" clip-rule="evenodd" d="M20.25 1.5C19.8358 1.5 19.5 1.16421 19.5 0.75C19.5 0.335786 19.8358 0 20.25 0H23.25C23.5534 0 23.8268 0.182732 23.9429 0.462987C24.059 0.743243 23.9949 1.06583 23.7804 1.28033L22.0607 3H23.25C23.6642 3 24 3.33579 24 3.75C24 4.16421 23.6642 4.5 23.25 4.5H20.25C19.9467 4.5 19.6732 4.31727 19.5571 4.03701C19.441 3.75676 19.5052 3.43417 19.7197 3.21967L21.4394 1.5H20.25Z" fill="#03AAE0"/>
<path fill-rule="evenodd" clip-rule="evenodd" d="M14.25 7C13.8358 7 13.5 6.66421 13.5 6.25C13.5 5.83579 13.8358 5.5 14.25 5.5H17.25C17.5534 5.5 17.8268 5.68273 17.9429 5.96299C18.059 6.24324 17.9949 6.56583 17.7804 6.78033L16.0607 8.5H17.25C17.6642 8.5 18 8.83579 18 9.25C18 9.66421 17.6642 10 17.25 10H14.25C13.9467 10 13.6732 9.81727 13.5571 9.53701C13.441 9.25676 13.5052 8.93417 13.7197 8.71967L15.4394 7H14.25Z" fill="#03AAE0"/>
<path fill-rule="evenodd" clip-rule="evenodd" d="M17.25 15C16.8358 15 16.5 14.6642 16.5 14.25C16.5 13.8358 16.8358 13.5 17.25 13.5H20.25C20.5534 13.5 20.8268 13.6827 20.9429 13.963C21.059 14.2432 20.9948 14.5658 20.7804 14.7803L19.0607 16.5H20.25C20.6642 16.5 21 16.8358 21 17.25C21 17.6642 20.6642 18 20.25 18H17.25C16.9467 18 16.6732 17.8173 16.5571 17.537C16.441 17.2568 16.5052 16.9342 16.7197 16.7197L18.4394 15H17.25Z" fill="#03AAE0"/>
</g>
<defs>
<clipPath id="clip0">
<rect width="24" height="24" fill="white"/>
</clipPath>
</defs>
</svg>
