<svg width="24" height="24" viewBox="0 0 24 24" fill="none" xmlns="http://www.w3.org/2000/svg">
<path d="M18.75 21C17.79 21 16.942 20.385 16.629 19.5H7.371C7.058 20.385 6.21 21 5.25 21C4.29 21 3.442 20.385 3.129 19.5H2.25C1.009 19.5 0 18.491 0 17.25V5.25C0 4.009 1.009 3 2.25 3H15C16.241 3 17.25 4.009 17.25 5.25V7.5H20.25C22.318 7.5 24 9.182 24 11.25V17.25C24 18.491 22.991 19.5 21.75 19.5H20.871C20.558 20.385 19.71 21 18.75 21ZM18.75 18C18.336 18 18 18.336 18 18.75C18 19.164 18.336 19.5 18.75 19.5C19.164 19.5 19.5 19.164 19.5 18.75C19.5 18.336 19.164 18 18.75 18ZM5.25 18C4.836 18 4.5 18.336 4.5 18.75C4.5 19.164 4.836 19.5 5.25 19.5C5.664 19.5 6 19.164 6 18.75C6 18.336 5.664 18 5.25 18ZM21.75 18C22.164 18 22.5 17.664 22.5 17.25V13.5H21C19.759 13.5 18.75 12.491 18.75 11.25V9H17.25V17.076C17.652 16.716 18.181 16.5 18.75 16.5C19.71 16.5 20.558 17.115 20.871 18H21.75ZM15.75 18V15H1.5V17.25C1.5 17.664 1.836 18 2.25 18H3.129C3.443 17.115 4.291 16.5 5.25 16.5C6.209 16.5 7.058 17.115 7.371 18H15.75ZM15.75 13.5V5.25C15.75 4.836 15.414 4.5 15 4.5H2.25C1.836 4.5 1.5 4.836 1.5 5.25V13.5H3.75V8.25C3.75 7.836 4.086 7.5 4.5 7.5C4.914 7.5 5.25 7.836 5.25 8.25V13.5H7.5V8.25C7.5 7.836 7.836 7.5 8.25 7.5C8.664 7.5 9 7.836 9 8.25V13.5H11.25V8.25C11.25 7.836 11.586 7.5 12 7.5C12.414 7.5 12.75 7.836 12.75 8.25V13.5H15.75ZM20.25 11.25C20.25 11.664 20.586 12 21 12H22.5V11.25C22.5 10.009 21.491 9 20.25 9V11.25Z" fill="#00A2E1"/>
</svg>
