<svg width="24" height="24" viewBox="0 0 24 24" fill="none" xmlns="http://www.w3.org/2000/svg">
<path d="M12 24C5.383 24 0 18.617 0 12C0 5.383 5.383 0 12 0C18.617 0 24 5.383 24 12C24 18.617 18.617 24 12 24ZM12 1.5C6.21 1.5 1.5 6.21 1.5 12C1.5 17.79 6.21 22.5 12 22.5C17.79 22.5 22.5 17.79 22.5 12C22.5 6.21 17.79 1.5 12 1.5Z" fill="#85878A"/>
<path d="M8.24998 16.5C8.04998 16.5 7.86098 16.422 7.71998 16.28C7.42798 15.988 7.42798 15.512 7.71998 15.219L15.22 7.71902C15.362 7.57702 15.55 7.49902 15.75 7.49902C15.95 7.49902 16.139 7.57702 16.28 7.71902C16.422 7.86002 16.5 8.04902 16.5 8.24902C16.5 8.44902 16.422 8.63802 16.28 8.77902L8.77998 16.279C8.63898 16.422 8.44998 16.5 8.24998 16.5Z" fill="#85878A"/>
<path d="M9 11.25C7.759 11.25 6.75 10.241 6.75 9C6.75 7.759 7.759 6.75 9 6.75C10.241 6.75 11.25 7.759 11.25 9C11.25 10.241 10.241 11.25 9 11.25ZM9 8.25C8.586 8.25 8.25 8.586 8.25 9C8.25 9.414 8.586 9.75 9 9.75C9.414 9.75 9.75 9.414 9.75 9C9.75 8.586 9.414 8.25 9 8.25Z" fill="#85878A"/>
<path d="M15 17.25C13.759 17.25 12.75 16.241 12.75 15C12.75 13.759 13.759 12.75 15 12.75C16.241 12.75 17.25 13.759 17.25 15C17.25 16.241 16.241 17.25 15 17.25ZM15 14.25C14.586 14.25 14.25 14.586 14.25 15C14.25 15.414 14.586 15.75 15 15.75C15.414 15.75 15.75 15.414 15.75 15C15.75 14.586 15.414 14.25 15 14.25Z" fill="#85878A"/>
</svg>
