<svg width="80" height="25" viewBox="0 0 80 25" fill="none" xmlns="http://www.w3.org/2000/svg">
<path d="M79.0674 21.9656C79.0674 17.0184 79.0674 12.0712 79.0008 7.12396C79.0008 5.47488 78.2681 4.0237 77.1357 2.90233C75.6036 1.45114 73.7385 0.791504 71.607 0.791504C61.0824 0.791504 50.5578 0.791504 40.0999 0.791504C29.5753 0.791504 18.9842 0.791504 8.45959 0.791504C5.12903 0.791504 1.66525 3.10023 1.13236 6.66223C0.865919 8.5092 0.999133 10.3562 0.999133 12.2031C0.999133 14.182 0.73268 16.1609 1.19896 18.1398C1.86507 21.2401 4.59614 24.1424 8.39298 24.0765C31.2406 23.9445 54.0882 24.0105 76.9359 24.0105C77.4021 24.0105 77.8684 23.9446 78.3347 24.1424C78.7344 24.3403 79.134 24.2084 79.0674 23.6147C79.0674 23.087 79.0674 22.5593 79.0674 21.9656ZM77.0025 23.087C75.1374 23.0211 73.2722 23.087 71.4071 23.087C61.6819 23.087 52.0233 23.087 42.298 23.087C30.9075 23.087 19.517 23.087 8.12654 23.087C4.72937 23.087 2.26475 20.0527 2.06492 17.4142C1.73186 13.9841 1.79847 10.554 2.06492 7.12396C2.33136 4.22159 5.12903 1.78095 8.12654 1.78095C20.5828 1.78095 33.1057 1.78095 45.562 1.78095C54.4213 1.78095 63.2806 1.78095 72.0732 1.78095C75.4038 1.78095 78.2015 4.35351 78.2015 7.78359C78.2015 12.5329 78.1348 17.2163 78.2015 21.9656C78.2681 22.8891 77.8684 23.087 77.0025 23.087Z" fill="#B7C0C4"/>
<path d="M19.5166 19.7889C21.1819 17.4802 22.7139 15.3034 24.3126 13.1926C24.7123 12.6649 24.6457 12.2691 24.246 11.7414C22.8472 9.76251 21.4483 7.71767 20.0495 5.67281C19.9163 5.54089 19.7164 5.40896 19.8497 5.01318C21.0487 5.01318 22.2477 5.01318 23.5133 5.01318C23.9129 5.01318 24.1128 5.343 24.3126 5.67281C24.9121 6.53033 25.445 7.38785 26.0445 8.24537C26.5108 8.905 26.9771 8.905 27.3767 8.24537C27.9762 7.38785 28.5091 6.46437 29.1086 5.60685C29.3085 5.27703 29.5749 5.01318 30.0412 5.01318C30.9071 5.01318 31.8397 5.01318 32.7056 5.01318C33.3717 5.01318 33.5716 5.21106 33.1719 5.8707C31.8397 7.78362 30.5741 9.76251 29.2418 11.6754C28.9754 12.0712 28.9088 12.3351 29.2418 12.7968C30.7073 14.9076 32.1061 17.0185 33.5716 19.1952C33.7048 19.3272 33.9046 19.4591 33.838 19.7229C33.7048 19.9868 33.505 19.7889 33.3051 19.8549C33.3051 19.8549 33.2385 19.8549 33.1719 19.8549C31.9063 19.7229 30.4408 20.3826 29.4417 19.5251C28.5757 18.7335 28.1094 17.4802 27.5099 16.4248C26.8438 15.3034 26.7772 15.3034 26.1111 16.4248C25.5116 17.3483 24.8455 18.3377 24.246 19.2612C23.9796 19.657 23.7131 19.9208 23.1802 19.8549C22.1144 19.7229 20.9154 19.7889 19.5166 19.7889Z" fill="#B7C0C4"/>
<path d="M41.232 13.9841C41.232 15.6332 41.232 17.3483 41.232 18.9973C41.232 19.525 41.0322 19.7889 40.5659 19.8549C39.7666 19.9208 38.9672 19.9868 38.1679 19.9208C37.635 19.9208 37.5684 19.4591 37.5684 18.9973C37.5684 15.7652 37.5684 12.467 37.5684 9.23482C37.5684 8.50922 37.4352 8.11344 36.5692 8.1794C35.7033 8.24537 34.904 8.17941 34.038 8.24537C33.5051 8.24537 33.4385 8.11345 33.705 7.65171C34.1712 6.92611 34.5709 6.13454 35.1038 5.47491C35.3702 5.07913 35.9697 5.01318 36.436 5.01318C39.2337 5.01318 42.0314 5.01318 44.7624 5.01318C45.2287 5.01318 45.4285 5.14511 45.3619 5.60685C45.3619 5.67281 45.3619 5.6728 45.3619 5.73876C45.4951 8.24536 45.4951 8.24537 42.9639 8.24537C41.232 8.24537 41.232 8.24537 41.232 9.89445C41.232 11.2137 41.232 12.5989 41.232 13.9841Z" fill="#B7C0C4"/>
<path d="M75.4707 19.0633C74.0053 15.3034 72.6064 11.6095 71.141 7.84961C70.0086 4.94723 70.0086 4.94724 66.9445 5.0132C66.345 5.0132 65.9453 5.21108 65.7455 5.80475C65.3458 6.92612 64.9461 8.04749 64.4799 9.1029C63.2809 12.3351 62.0153 15.5673 60.7497 18.7335C60.6831 18.9314 60.683 19.3272 60.2834 19.3272C59.8837 19.3272 59.8837 18.9974 59.7505 18.7995C58.8179 17.3483 58.0186 15.8311 57.0861 14.3799C56.8196 13.9842 56.8196 13.7863 57.2859 13.5224C59.151 12.2691 59.8837 10.1583 59.2842 8.04749C58.7513 6.20052 57.086 5.07917 54.688 5.0132C52.4233 4.94724 50.2251 5.0132 47.9603 5.0132C47.2276 5.0132 46.8945 5.21108 46.8945 6.0686C46.9611 10.3562 46.9611 14.7098 46.8945 18.9974C46.8945 19.723 47.2942 19.9208 47.7605 19.9868C48.4266 20.0528 49.0927 20.0528 49.8254 19.9868C50.3583 19.9868 50.6248 19.723 50.6248 19.1293C50.5581 17.81 50.6248 16.4248 50.6248 15.1055C50.6248 14.8417 50.4915 14.5778 50.8246 14.3799C51.5573 13.9842 53.2226 14.5119 53.6223 15.2375C54.355 16.5567 55.1543 17.876 55.8204 19.2612C56.0869 19.7889 56.4199 20.0528 57.0194 20.0528C58.9512 20.0528 60.8829 20.0528 62.8146 20.0528C63.4141 20.0528 63.947 19.9208 64.1468 19.3272C65.146 16.8865 65.0794 16.8866 67.7438 16.8866C67.8771 16.8866 68.0103 16.8866 68.1435 16.8866C69.0094 16.8866 70.0752 16.6227 70.7413 17.0185C71.3408 17.3483 71.4074 18.4697 71.6739 19.2612C71.8737 19.8549 72.2734 20.0528 72.8729 20.1187C73.7388 20.1847 74.6048 19.7889 75.5373 19.9208C75.6039 19.4591 75.5373 19.2612 75.4707 19.0633ZM54.5548 11.0158C53.9553 11.0818 53.4224 11.0158 52.8229 11.0158C52.4899 11.0158 52.2234 10.9499 51.8904 11.0158C50.9578 11.1478 50.5581 10.8179 50.6248 9.8285C50.6914 7.84961 50.4249 8.17942 52.29 8.17942C53.0894 8.17942 53.8887 8.11347 54.688 8.31136C55.554 8.50925 55.6872 9.1029 55.6872 9.76253C55.7538 10.6201 55.2209 10.9499 54.5548 11.0158ZM69.2093 14.1161C68.743 14.1161 68.3433 14.1161 67.877 14.1161C66.1452 14.1161 66.1452 14.1161 66.7447 12.467C67.0777 11.4776 67.4108 10.5541 67.7438 9.56465C67.8104 9.43272 67.7438 9.3008 67.9437 9.23484C68.1435 9.23484 68.2101 9.36676 68.2767 9.56465C68.743 10.8179 69.2093 12.1372 69.6756 13.4565C69.942 13.9842 69.6755 14.1161 69.2093 14.1161Z" fill="#B7C0C4"/>
<path d="M9.92507 13.9182C12.7894 13.9182 15.6536 13.9182 18.5179 13.9182C19.1174 13.9182 19.3173 13.8522 19.3173 13.2586C19.2506 12.2691 19.3839 11.2137 19.2506 10.2243C18.9842 7.58575 18.1849 5.8707 15.0541 5.21107C13.5221 4.88126 11.9234 4.88125 10.3914 5.07914C7.79352 5.40895 6.12824 6.59629 5.39552 9.36674C4.92924 11.3456 4.99585 13.3245 5.39552 15.2375C5.8618 17.4142 7.12742 18.9314 9.45881 19.4591C11.9234 19.9868 14.388 19.657 16.8526 19.7889C17.0525 19.7889 17.1191 19.657 17.1857 19.5251C17.7852 18.6675 18.3847 17.81 19.184 16.7546C16.6528 16.7546 14.2548 16.7546 11.9234 16.7546C10.3914 16.7546 9.72525 16.1609 9.12575 14.9077C8.79269 13.9182 9.12574 13.9182 9.92507 13.9182ZM8.99252 10.686C8.99252 9.63059 9.52542 8.77307 10.458 8.37729C11.8568 7.84959 13.2556 7.91556 14.6545 8.50923C15.3206 8.77308 15.8535 10.1583 15.7203 10.8179C15.6536 11.2797 15.254 11.2797 14.9209 11.2797C13.9884 11.2797 13.0558 11.2797 12.1898 11.2797C11.3239 11.2797 10.3913 11.2797 9.5254 11.2797C9.12573 11.2797 8.99252 11.0818 8.99252 10.686Z" fill="#B7C0C4"/>
</svg>
