<svg width="84" height="22" viewBox="0 0 84 22" fill="none" xmlns="http://www.w3.org/2000/svg">
<path d="M2.67578 2.1875C3.17356 2.1875 3.67135 2.1875 4.16913 2.1875C4.60469 2.1875 5.10245 2.1875 5.53801 2.1875C5.53801 7.0625 5.53801 11.9375 5.53801 16.875C4.60467 16.875 3.60911 16.875 2.67578 16.875C2.67578 12 2.67578 7.0625 2.67578 2.1875Z" fill="#B7C0C4"/>
<path d="M38.0808 4.06245C37.6453 4.68745 37.1475 5.37496 36.7119 5.99996C36.4008 5.81246 36.0897 5.62496 35.7786 5.43746C34.7208 4.81246 33.6008 4.43746 32.3564 4.24996C31.7964 4.12496 31.1742 4.12495 30.6142 4.06245C30.3031 4.06245 29.9297 3.99997 29.6186 3.99997C28.5608 3.99997 27.5653 4.18746 26.5697 4.49996C25.9475 4.68746 25.3875 4.99996 25.0142 5.49996C24.7031 5.93746 24.7653 6.43747 25.1386 6.81247C25.4497 7.12497 25.8853 7.24996 26.2586 7.37496C27.1297 7.62496 28.0008 7.68747 28.8719 7.74997C29.9919 7.81247 31.1742 7.81246 32.2942 7.93746C33.7253 8.06246 35.1564 8.31247 36.4631 8.99997C36.9608 9.24997 37.3964 9.62496 37.7075 10.0625C38.1431 10.625 38.3297 11.25 38.3919 11.9375C38.4542 12.5 38.3919 13.0625 38.2053 13.625C38.0186 14.1875 37.7075 14.75 37.2719 15.1875C36.9608 15.5 36.6497 15.75 36.2764 15.9375C35.4675 16.375 34.5964 16.6875 33.6631 16.9375C32.7297 17.125 31.7342 17.25 30.7386 17.25C29.6808 17.25 28.6853 17.1875 27.6275 17.1875C26.6319 17.125 25.6364 16.875 24.7031 16.625C23.7075 16.375 22.7742 15.875 21.9031 15.375C21.7164 15.25 21.5919 15.1875 21.4053 15.0625C21.8408 14.3125 22.3386 13.625 22.7742 12.875C22.8986 13 23.023 13.0625 23.2097 13.1875C23.8319 13.625 24.5786 13.875 25.2631 14.1875C26.7564 14.8125 28.2497 15 29.8053 15.0625C30.7386 15.125 31.6097 15.0625 32.4808 14.9375C33.2897 14.875 34.0986 14.5625 34.783 14.0625C35.343 13.6875 35.6542 13.125 35.6542 12.4375C35.6542 12.125 35.5919 11.875 35.343 11.625C35.0942 11.3125 34.7208 11.125 34.3475 10.9375C33.5386 10.625 32.6675 10.4375 31.7964 10.4375C30.4897 10.375 29.2453 10.3125 27.9386 10.25C26.8808 10.1875 25.823 9.99995 24.8275 9.68745C24.0186 9.43745 23.2719 9.12496 22.6497 8.56246C22.2142 8.12496 21.9031 7.56245 21.8408 6.87495C21.7786 6.37495 21.7786 5.81246 21.9031 5.37496C21.9653 4.99996 22.2142 4.62497 22.4631 4.31247C22.8986 3.74997 23.3964 3.31246 24.0186 2.99996C24.5164 2.74996 25.0764 2.56246 25.6364 2.37496C27.1919 1.93746 28.7475 1.81245 30.3031 1.87495C32.3564 1.93745 34.4097 2.31245 36.2764 3.12495C37.023 3.37495 37.5831 3.68745 38.0808 4.06245Z" fill="#B7C0C4"/>
<path d="M9.6443 16.8749C8.71096 16.8749 7.90208 16.8749 6.96875 16.8749C6.96875 13.1249 6.96875 9.37488 6.96875 5.56238C7.83986 5.56238 8.71096 5.56238 9.6443 5.56238C9.6443 5.87488 9.6443 6.18738 9.6443 6.49988C10.1421 6.31238 10.5776 6.06238 11.0754 5.87488C12.0087 5.49988 12.9421 5.31238 13.9376 5.24988C15.2443 5.18738 16.551 5.37488 17.7954 5.87488C18.1065 5.99988 18.4176 6.18738 18.6665 6.43738C19.5376 7.24988 20.0976 8.24987 20.0976 9.49987C20.1598 11.9374 20.1599 14.3124 20.2221 16.7499C20.2221 16.8124 20.2221 16.8124 20.2221 16.8749C19.351 16.8749 18.4176 16.8749 17.4843 16.8749C17.4843 16.8124 17.4843 16.7499 17.4843 16.6249C17.4843 14.9374 17.4843 13.3124 17.4843 11.6249C17.4843 10.9374 17.4221 10.1874 17.3598 9.49987C17.2354 8.74987 16.8621 8.18737 16.1154 7.93737C15.2443 7.68737 14.4354 7.62488 13.5021 7.68738C12.631 7.74988 11.8843 7.99988 11.0754 8.31238C11.0132 8.31238 10.951 8.37488 10.8887 8.37488C10.6399 8.56238 10.391 8.68737 10.1421 8.87487C9.45762 9.31237 9.58207 9.12488 9.58207 9.87488C9.58207 12.1249 9.58207 14.3749 9.58207 16.6249C9.64429 16.6874 9.6443 16.7499 9.6443 16.8749Z" fill="#B7C0C4"/>
<path d="M47.6006 5.5625C48.1606 5.5625 48.6584 5.5625 49.1561 5.5625C49.5917 5.5625 50.0895 5.5625 50.525 5.5625C50.6495 5.5625 50.7739 5.62499 50.8361 5.74999C52.205 8.43749 53.6361 11.0625 55.005 13.75C55.0672 13.875 55.1295 13.9375 55.1917 14.0625C55.2539 13.9375 55.3161 13.875 55.3784 13.8125C56.8095 11.125 58.3028 8.43749 59.7339 5.74999C59.7961 5.62499 59.9206 5.5625 60.045 5.5625C60.8539 5.5625 61.6628 5.5625 62.4717 5.5625C62.5339 5.5625 62.5961 5.5625 62.7206 5.5625C62.6584 5.625 62.6584 5.68749 62.5961 5.74999C59.9206 10.625 57.1828 15.4375 54.5073 20.3125C54.445 20.4375 54.3206 20.5 54.1961 20.5C53.325 20.5 52.4539 20.5 51.5206 20.5C51.5828 20.4375 51.5828 20.375 51.645 20.3125C52.2673 19.1875 52.9517 18.0625 53.5739 16.9375C53.6361 16.8125 53.6984 16.6875 53.5739 16.5625C51.645 13 49.7161 9.4375 47.7872 5.875C47.6628 5.75 47.6628 5.625 47.6006 5.5625Z" fill="#B7C0C4"/>
<path d="M38.5154 5.56251C39.0754 5.56251 39.6354 5.56251 40.1331 5.56251C40.382 5.56251 40.382 5.56251 40.382 5.25001C40.382 4.43751 40.382 3.625 40.382 2.8125C40.382 2.75 40.382 2.6875 40.382 2.5625C41.2531 2.5625 42.1242 2.5625 42.9954 2.5625C42.9954 2.625 42.9954 2.75 42.9954 2.8125C42.9954 3.625 42.9954 4.4375 42.9954 5.3125C42.9954 5.5 43.0576 5.56251 43.2442 5.56251C44.302 5.56251 45.2976 5.56251 46.3554 5.56251C46.4176 5.56251 46.542 5.56251 46.6042 5.56251C46.6042 6.31251 46.6042 7.0625 46.6042 7.8125C46.542 7.8125 46.4176 7.8125 46.3554 7.8125C45.2976 7.8125 44.302 7.8125 43.2442 7.8125C43.0576 7.8125 42.9954 7.87501 42.9954 8.06251C42.9954 9.93751 42.9954 11.8125 42.9954 13.6875C42.9954 13.9375 42.9953 14.25 43.182 14.5C43.4309 14.8125 43.742 14.875 44.0531 14.9375C44.9242 15.0625 45.7331 14.875 46.542 14.5625H46.6042C46.7909 15.3125 46.9776 16 47.2265 16.8125C46.7287 16.9375 46.2309 17 45.7331 17.125C45.422 17.1875 45.0487 17.25 44.7376 17.3125C43.9287 17.375 43.1198 17.375 42.3731 17.125C41.3154 16.8125 40.6309 16.125 40.5065 15C40.4442 14.5 40.382 14 40.382 13.5C40.382 11.6875 40.382 9.87501 40.382 8.06251C40.382 7.87501 40.3198 7.8125 40.1331 7.8125C39.6354 7.8125 39.1998 7.8125 38.702 7.8125C38.6398 7.8125 38.5776 7.8125 38.4531 7.8125C38.5153 7.0625 38.5154 6.31251 38.5154 5.56251Z" fill="#B7C0C4"/>
<path d="M63.5293 2.25C64.4004 2.25 65.3337 2.25 66.2048 2.25C66.2048 7.125 66.2048 12 66.2048 16.875C65.3337 16.875 64.4004 16.875 63.5293 16.875C63.5293 12 63.5293 7.125 63.5293 2.25Z" fill="#B7C0C4"/>
<path d="M80.2043 13.375C78.8976 14.375 77.9643 14.625 76.782 14.75C76.3465 14.8125 75.8487 14.8125 75.4132 14.875C74.6043 14.9375 73.7954 14.875 73.0487 14.75C72.2398 14.5625 71.4931 14.25 70.9331 13.625C70.622 13.25 70.4354 12.8125 70.3109 12.3125C74.2309 12.3125 78.1509 12.3125 82.0709 12.3125C82.0087 11.875 82.0087 11.5625 82.0087 11.1875C81.9465 10.4375 81.6976 9.75 81.4487 9.125C81.1376 8.375 80.702 7.68749 80.0798 7.18749C79.6443 6.81249 79.2087 6.49999 78.7732 6.24999C78.1509 5.93749 77.5287 5.68751 76.782 5.56251C75.7865 5.37501 74.7909 5.3125 73.7331 5.375C73.4843 5.375 73.2976 5.375 73.0487 5.4375C72.302 5.625 71.5554 5.75001 70.8709 6.12501C70.3731 6.43751 69.8131 6.68751 69.3154 7.06251C68.8176 7.50001 68.3198 8.00001 68.0709 8.68751C67.8842 9.18751 67.6354 9.68751 67.5109 10.1875C67.3865 10.8125 67.3242 11.4375 67.4487 12.0625C67.5109 12.625 67.6354 13.1875 67.8843 13.75C68.0709 14.1875 68.3198 14.5625 68.5687 14.9375C69.0043 15.5 69.502 15.9375 70.1865 16.25C70.6842 16.5 71.2442 16.75 71.742 16.9375C72.7376 17.25 73.7954 17.375 74.8531 17.375C75.2265 17.375 75.662 17.375 76.0354 17.3125C76.9687 17.1875 77.8398 17.125 78.7732 16.8125C79.5198 16.5625 80.3287 16.3125 80.9509 15.8125C81.1998 15.6875 81.3865 15.5 81.6354 15.3125C81.3865 15 81.1376 14.6875 80.9509 14.375C80.6398 14 80.4531 13.6875 80.2043 13.375ZM70.4976 9.5C71.0576 8.5 71.9909 8.00001 73.0487 7.75001C73.9198 7.56251 74.8531 7.56251 75.7865 7.75001C76.5331 7.87501 77.2176 8.0625 77.8398 8.5C78.3998 8.875 78.7731 9.43751 78.9598 10.1875C76.0354 10.1875 73.1731 10.1875 70.1865 10.1875C70.3109 9.93751 70.3731 9.6875 70.4976 9.5Z" fill="#B7C0C4"/>
</svg>
