<svg width="78" height="32" viewBox="0 0 78 32" fill="none" xmlns="http://www.w3.org/2000/svg">
<path d="M77.318 14.1968C77.318 12.9946 77.0906 11.8497 76.5789 10.7621C75.4419 8.1288 73.4521 6.52595 70.5527 6.35421C67.9944 6.18248 66.0046 7.32737 64.6402 9.44544C63.8442 10.7048 63.56 11.5063 63.2757 13.2809C63.2757 12.9374 63.3894 12.5367 63.3894 12.0787C63.3894 8.64401 63.3894 5.15206 63.3894 1.71736C63.3894 1.54562 63.3894 1.31664 63.3894 1.1449C63.3894 1.03041 63.3326 0.858683 63.162 0.915928C63.162 0.973173 63.1052 1.03041 63.1052 1.08766C63.0483 0.915921 62.9346 0.858679 62.7072 0.858679C60.6037 0.858679 58.5002 0.858679 56.3967 0.858679C55.9987 0.858679 55.9419 0.915918 55.9419 1.31663C55.9419 2.11806 55.9419 2.97675 55.9419 3.77818C55.9419 4.06441 55.9987 4.23614 56.283 4.35063C57.0789 4.57961 57.6474 5.03756 57.7611 5.89624C57.818 6.12522 57.8748 6.41146 57.8748 6.64044C57.8748 8.93024 57.8748 11.22 57.8748 13.5671C57.7611 13.5098 57.818 13.3953 57.818 13.2809C57.4769 11.1055 56.7378 9.10197 55.0891 7.49911C53.611 6.01074 51.5643 5.95348 49.9725 7.27012C49.6314 7.55634 49.3471 7.95707 49.0629 8.30054C48.8923 7.95707 49.006 7.6136 49.006 7.21289C49.006 6.92666 48.8923 6.81216 48.6081 6.81216C46.6751 6.75492 44.799 6.86941 42.8661 6.75492C42.6387 6.81216 42.5818 6.98391 42.525 7.21289C42.525 8.07156 42.525 8.87299 42.525 9.73167C42.525 9.67442 42.4681 9.55994 42.4113 9.50269C42.3544 9.44545 42.2976 9.33094 42.2407 9.2737C41.5585 8.18604 40.592 7.38462 39.455 6.86941C37.5221 6.01074 35.5891 6.06798 33.713 7.15564C31.8938 8.24329 30.8705 9.9034 30.3019 11.907C30.1882 11.3918 30.0745 10.8766 29.8471 10.3614C29.2786 8.87299 28.3121 7.72808 26.8909 6.98389C25.299 6.18246 23.6503 6.18248 21.9448 6.64044C21.1489 6.86942 20.4667 7.21288 19.7844 7.61359C19.5002 7.78533 19.4434 7.78533 19.3865 7.44186C19.3296 7.09839 19.3296 6.81216 19.2728 6.46869C18.8748 4.35062 18.0789 2.51879 16.0891 1.43113C15.1795 0.915925 14.213 0.686937 13.1329 0.744182C9.15326 0.744182 5.17367 0.744182 1.19408 0.744182C0.739268 0.744182 0.739258 0.744193 0.739258 1.20215C0.739258 2.34706 0.739258 3.49195 0.739258 4.57961C0.739258 4.86584 0.966673 4.92307 1.19408 4.98031C1.93315 5.15205 2.3311 5.61002 2.50165 6.29696C2.5585 6.52594 2.55851 6.81216 2.55851 7.04114C2.55851 11.1055 2.55851 15.2272 2.55851 19.2916C2.55851 20.4937 2.2174 21.0089 1.08037 21.3524C0.796113 21.4669 0.739258 21.6386 0.739258 21.9249C0.739258 23.0125 0.739258 24.0429 0.739258 25.1306C0.739258 25.4741 0.852967 25.5885 1.13722 25.5885C4.37775 25.5885 7.56142 25.5885 10.8019 25.5885C11.1999 25.5885 11.2568 25.5313 11.2568 25.1306C11.2568 24.0429 11.2568 23.0125 11.2568 21.9249C11.2568 21.6959 11.1999 21.4669 10.9725 21.3524C10.9156 21.2952 10.8019 21.2379 10.7451 21.2379C10.006 21.1234 9.60807 20.6082 9.43752 19.864C9.43752 19.8068 9.38066 19.6923 9.38066 19.6351C9.26696 19.4061 9.26696 19.1771 9.26696 18.9481C9.26696 18.2612 9.26696 17.5742 9.26696 16.9446C9.26696 16.6583 9.32382 16.3721 9.43752 16.0859C9.55122 15.9714 9.66491 15.9714 9.83547 15.9714C10.9156 16.0286 11.939 15.9141 13.0191 15.8569C14.0993 15.7996 15.1795 15.5707 16.0891 14.8837C16.3165 14.712 16.4871 14.5403 16.7145 14.3685C16.7145 14.5975 16.6576 14.8265 16.7145 14.9982C16.7145 15.2272 16.8282 15.3989 16.8282 15.6279C16.7713 16.3721 16.8282 17.059 16.6576 17.8032C16.7145 19.0626 16.885 20.322 17.283 21.5242C17.681 22.6118 18.2495 23.5277 19.1022 24.2719C20.6372 25.6458 22.3996 26.2755 24.5031 26.1038C27.0614 25.932 28.767 24.6154 29.7334 22.3256C29.9608 21.8104 30.1314 21.2379 30.3019 20.6082C30.4156 21.0662 30.6431 21.4669 30.8136 21.8676C31.3821 23.0698 32.178 24.1002 33.2582 24.9016C34.7932 25.9893 36.4987 26.2755 38.318 25.9893C40.592 25.703 42.1839 24.4436 43.2641 22.4401C43.662 21.6959 43.9463 20.9517 44.06 20.093C44.06 21.6959 44.06 23.2988 44.06 24.9016C44.06 25.2451 44.0031 25.5313 43.8894 25.8175C43.7189 26.7335 43.264 27.4204 42.2976 27.7066C42.127 27.7639 42.0133 27.9356 41.9565 28.1073C42.0702 28.7943 42.0702 29.5385 42.0702 30.2254C42.0702 30.5689 41.8996 30.8551 42.0133 31.1986C42.0133 31.2558 42.0702 31.2558 42.0702 31.3131C44.9696 31.3131 47.9259 31.3131 50.8253 31.3131C50.939 31.1986 50.939 31.1413 50.939 30.9696C50.939 29.9964 50.8821 29.0233 51.0527 28.0501C51.0527 27.8211 50.8821 27.7066 50.6547 27.5921C50.3705 27.4776 50.1431 27.3632 49.9725 27.1914C49.404 26.6762 49.1766 25.9893 49.1766 25.2451C49.1766 24.7299 49.2334 24.1574 49.1197 23.6995C49.1766 23.814 49.2903 23.9857 49.404 24.1574C49.6314 24.4436 49.8588 24.6726 50.0862 24.9016C51.4506 26.1038 53.0425 26.39 54.4638 25.5313C55.7145 24.7871 56.3399 23.585 56.5673 22.4401C56.5104 23.1842 56.5673 24.1574 56.5673 25.1306C56.5673 25.4168 56.7378 25.5313 57.0221 25.5885C57.1926 25.5885 57.3632 25.5885 57.5906 25.5885C59.2393 25.5885 60.9448 25.5885 62.5935 25.5885C63.0483 25.5885 63.56 25.5885 64.0148 25.5885C64.3559 25.5885 64.5264 25.4168 64.5264 25.0733C64.5264 24.1574 64.5833 23.1843 64.4696 22.2683C64.4696 22.4401 64.5264 22.6118 64.6402 22.7835C65.1518 23.7567 65.834 24.5581 66.8005 25.0733C68.2218 25.8748 69.7568 26.1038 71.3486 25.8748C73.5089 25.5313 75.1576 24.5009 76.2947 22.6691C76.8063 21.8104 77.2043 20.8372 77.1474 19.7496C77.0337 19.5206 76.8063 19.5206 76.5789 19.5206C75.1576 19.5206 73.6795 19.5206 72.2582 19.5206C72.0877 19.5206 71.9171 19.5206 71.7466 19.6351C71.576 19.7495 71.576 19.9785 71.4623 20.1503C71.3486 20.4365 71.2349 20.6655 71.0643 20.8945C70.5527 21.5242 69.7568 21.5814 69.2451 20.9517C69.0177 20.6655 68.8471 20.322 68.7334 19.9213C68.5629 19.3488 68.5629 18.7191 68.506 18.0895C68.4492 17.4598 68.5629 17.3453 69.1883 17.3453C71.5192 17.3453 73.8501 17.3453 76.2378 17.3453C76.4084 17.3453 76.6358 17.3453 76.8063 17.3453C76.92 17.3453 77.0906 17.3453 77.0906 17.1163C77.0337 17.059 76.9769 17.059 76.92 17.059C77.0906 17.0018 77.1474 16.9446 77.1474 16.6583C77.1474 15.7996 77.1474 14.8837 77.1474 14.025C77.318 14.3685 77.318 14.254 77.318 14.1968ZM12.5075 9.9034C12.2801 10.8193 11.8253 11.22 10.9157 11.2773C10.404 11.3345 9.83547 11.3918 9.32381 11.22C9.26696 11.1628 9.26696 11.0483 9.26696 10.991C9.26696 9.21645 9.26696 7.49911 9.26696 5.72451C9.26696 5.66727 9.26696 5.55278 9.32381 5.49553C11.0293 5.20931 12.2801 5.32379 12.5643 7.32737C12.678 8.18604 12.7349 9.04472 12.5075 9.9034ZM22.0585 14.1968C22.1154 13.4526 22.1154 12.6512 22.4565 11.907C22.6839 11.3345 22.9681 10.8766 23.6503 10.7048C24.2189 10.5903 24.6737 10.7621 25.0148 11.22C25.4696 11.7925 25.5833 12.5367 25.6401 13.2236C25.697 13.5671 25.697 13.8533 25.697 14.1968C25.697 14.4258 25.6401 14.5402 25.3559 14.5402C24.8442 14.5402 24.3894 14.5402 23.8778 14.5402C23.4229 14.5402 22.9681 14.5402 22.4565 14.5402C22.1154 14.6547 22.0585 14.4258 22.0585 14.1968ZM29.8471 19.9213C28.5396 19.9213 27.2888 19.9213 25.9813 19.9213C25.697 19.9213 25.5833 19.9785 25.4696 20.322C25.299 20.9517 25.0716 21.5814 24.3894 21.8676C23.764 22.1538 23.0818 21.8676 22.6839 21.2379C22.3428 20.7227 22.2291 20.1503 22.1722 19.5778C22.1154 19.0054 22.0585 18.4902 22.0585 17.9177C22.0585 17.6315 22.1722 17.5742 22.3996 17.5742C23.5935 17.5742 24.7874 17.5742 25.9813 17.5742C27.1751 17.5742 28.3121 17.5742 29.506 17.5742C29.7903 17.5742 29.904 17.6315 29.8471 17.975C29.8471 18.4902 29.904 19.0054 30.0745 19.5206C30.2451 19.8068 30.1882 19.9213 29.8471 19.9213ZM39.1139 17.2308C39.057 18.3757 39.0002 19.5206 38.6022 20.6082C38.4885 20.8945 38.3748 21.1807 38.2043 21.4097C37.6358 22.2111 36.7262 22.2111 36.1576 21.4669C35.7028 20.78 35.5323 19.9785 35.3617 19.1771C35.1912 18.2612 35.1912 17.3453 35.1912 16.5438C35.1912 15.1127 35.248 13.7961 35.646 12.4794C35.7597 12.136 35.8734 11.8497 36.0439 11.5635C36.6693 10.6476 37.5789 10.6476 38.2043 11.6207C38.5454 12.1932 38.7159 12.8801 38.8296 13.5098C39.1139 14.712 39.1707 15.9714 39.1139 17.2308ZM52.6445 17.6887C52.5877 18.7764 52.474 19.864 52.076 20.8372C51.7349 21.5814 51.2232 21.9821 50.6547 21.9249C50.0862 21.8676 49.6314 21.3524 49.4608 20.551C49.404 20.2648 49.4608 19.9785 49.2903 19.7496C49.2334 19.6923 49.2334 19.5778 49.2334 19.4633C49.2334 17.288 49.2334 15.1127 49.2334 12.9374C49.2334 12.8229 49.2334 12.7657 49.2903 12.6512C49.404 12.3077 49.404 11.9642 49.5177 11.6207C49.802 10.9338 50.1999 10.5903 50.939 10.6476C51.4506 10.6476 51.7349 10.9911 51.9623 11.3345C52.3034 11.9642 52.4171 12.5939 52.5308 13.2809C52.7014 14.7692 52.7014 16.2576 52.6445 17.6887ZM63.1052 13.6816C63.1052 10.5331 63.1052 7.44186 63.1052 4.29338C63.1052 7.44186 63.1052 10.5903 63.1052 13.6816ZM68.6197 14.5975C68.4492 14.5975 68.3923 14.5403 68.3923 14.3685C68.3923 13.4526 68.4492 12.5367 68.8471 11.7352C69.1314 11.1628 69.5294 10.8193 70.1547 10.8193C70.7801 10.8193 71.1781 11.22 71.4623 11.7352C71.6329 12.0787 71.6897 12.4794 71.8603 12.8801C71.974 13.4526 72.0308 14.025 71.9171 14.5975C70.8938 14.6547 69.7568 14.5975 68.6197 14.5975ZM69.0745 17.4598C71.1212 17.4598 73.111 17.4598 75.1576 17.4598C73.111 17.4598 71.0643 17.4598 69.0745 17.4598Z" fill="#B7C0C4"/>
</svg>
