<svg width="54" height="23" viewBox="0 0 54 23" fill="none" xmlns="http://www.w3.org/2000/svg">
<path d="M15.7964 14.2478C16.2835 11.4661 16.8402 8.61652 17.3273 5.83481C17.5361 4.54572 17.8144 3.32448 18.0232 2.03539C18.0928 1.62831 18.1623 1.42478 18.719 1.42478C22.1288 1.42478 25.469 1.42478 28.8788 1.42478C29.3659 1.42478 29.5051 1.49262 29.366 2.03539C29.1572 3.05309 29.018 4.07079 28.8092 5.08849C28.7397 5.56342 28.6005 5.8348 27.9742 5.76695C26.2345 5.69911 24.5644 5.76695 22.8247 5.76695C22.4072 5.76695 22.268 5.90264 22.1984 6.30972C22.0592 7.05603 21.9897 7.80236 21.7809 8.54867C21.6417 9.0236 21.7809 9.15929 22.268 9.15929C23.451 9.09144 24.634 9.15929 25.9561 9.15929C25.7474 10.4484 25.5386 11.6696 25.3299 12.8908C25.2603 13.2979 25.0515 13.2979 24.7036 13.2979C23.5902 13.2979 22.5464 13.2979 21.433 13.2979C21.085 13.2979 20.8763 13.2979 20.8763 13.705C20.7371 14.7905 20.5283 15.8761 20.3196 16.9616C20.25 17.4366 20.3891 17.4366 20.8067 17.4366C22.5464 17.4366 24.2165 17.4366 25.9561 17.4366C26.5128 17.4366 26.5824 17.6401 26.5129 18.115C26.3041 19.1327 26.0953 20.1504 25.9561 21.1681C25.8866 21.5752 25.817 21.6431 25.3995 21.6431C21.9201 21.6431 18.4407 21.6431 14.9613 21.6431C14.5438 21.6431 14.4742 21.5074 14.5438 21.1681C14.683 20.5575 14.7525 19.9469 14.8221 19.4041C14.8917 19.2006 14.8917 19.1327 14.6134 19.2006C12.1082 21.9823 8.21131 22.7964 4.80152 21.236C2.92265 20.354 1.80926 18.8614 1.18297 17.0295C1.0438 16.6224 1.25256 16.5546 1.53091 16.4867C2.7139 16.0796 3.89687 15.7404 5.07986 15.2655C5.49739 15.1298 5.63656 15.1976 5.77574 15.6047C6.19326 16.826 6.95874 17.708 8.42008 17.8436C9.46389 17.9115 10.2294 17.5723 10.5773 16.7581C10.9252 15.9439 10.7165 15.1976 9.95099 14.5192C8.97677 13.7729 7.93296 13.2301 6.88914 12.6195C5.35822 11.6696 4.10565 10.5162 3.61854 8.7522C2.57472 5.02064 5.14946 1.42478 9.11596 1.08554C10.3685 0.94985 11.6211 1.01769 12.8041 1.35693C14.8221 1.96754 16.0747 3.32446 16.701 5.22417C16.8402 5.5634 16.7706 5.69911 16.4227 5.76695C15.1701 6.17403 13.8479 6.58111 12.5953 7.05604C12.1082 7.25958 12.1082 6.92034 11.9691 6.64895C11.4124 5.56341 10.5773 5.08848 9.46389 5.29202C8.55926 5.35987 8.07213 6.44542 8.62883 7.39527C8.90718 7.93804 9.39429 8.27728 9.95099 8.54867C10.9252 9.15929 11.8995 9.70205 12.8041 10.3127C14.2654 11.2625 15.3092 12.4838 15.6572 14.1799C15.7268 14.1799 15.7268 14.2478 15.7268 14.3156C15.7268 14.5192 15.7268 14.6549 15.7268 14.8584C15.7964 14.6549 15.6572 14.4513 15.7964 14.2478Z" fill="#B7C0C4"/>
<path d="M38.0645 21.5074C38.8995 17.0295 39.665 12.6195 40.5 8.20947C40.848 6.10622 41.2655 4.00296 41.6134 1.89972C41.683 1.49264 41.8222 1.4248 42.1701 1.4248C45.5799 1.4248 49.0593 1.4248 52.4691 1.4248C52.817 1.4248 52.9562 1.49264 52.8866 1.89972C52.6778 2.98526 52.4691 4.07082 52.3299 5.15637C52.2603 5.63129 52.0516 5.76698 51.5644 5.76698C49.8943 5.76698 48.2242 5.76698 46.4845 5.76698C45.9974 5.76698 45.7191 5.90267 45.6495 6.3776C45.5799 7.05607 45.4407 7.73453 45.3016 8.413C45.1624 8.95577 45.232 9.15931 45.9278 9.15931C47.0412 9.09147 48.0851 9.15931 49.1985 9.15931C49.5464 9.15931 49.6856 9.22715 49.616 9.63423C49.4072 10.6519 49.2681 11.7375 49.0593 12.7552C48.9897 13.1623 48.7809 13.298 48.3634 13.298C47.25 13.298 46.1366 13.298 45.0232 13.298C44.6057 13.298 44.4665 13.3658 44.3969 13.8407C43.9794 16.2154 43.5619 18.59 43.1443 20.9646C43.0748 21.4395 42.866 21.7109 42.2397 21.7109C40.9175 21.5074 39.5258 21.5074 38.0645 21.5074Z" fill="#B7C0C4"/>
<path d="M32.0106 21.5074C30.4101 21.5074 28.74 21.5074 27.1395 21.5074C26.5828 21.5074 26.5132 21.3717 26.5828 20.8968C27.4179 16.2832 28.2529 11.6018 29.088 6.98823C29.3663 5.35991 29.7143 3.79944 29.923 2.17112C29.9926 1.5605 30.2709 1.35698 30.8276 1.42482C32.0802 1.49267 33.3328 1.42482 34.655 1.42482C35.0725 1.42482 35.2117 1.49266 35.1421 1.96759C34.3766 6.17408 33.6112 10.3806 32.8457 14.5871C32.7065 15.3334 32.6369 16.0118 32.4282 16.7581C32.3586 17.2331 32.4282 17.3688 32.9153 17.3688C34.4462 17.3009 36.0467 17.3688 37.5777 17.3688C37.9952 17.3688 38.204 17.3688 38.0648 17.9115C37.856 18.9292 37.6472 20.0148 37.5081 21.0325C37.4385 21.5074 37.2297 21.5753 36.8122 21.5753C35.2813 21.5074 33.6112 21.5074 32.0106 21.5074Z" fill="#B7C0C4"/>
</svg>
