<svg width="67" height="34" viewBox="0 0 67 34" fill="none" xmlns="http://www.w3.org/2000/svg">
<path d="M41.4241 30.4783C41.4241 30.5423 41.4241 30.6064 41.4241 30.7344C41.4241 30.8625 41.4241 30.9905 41.4885 31.1186C41.4885 31.4388 41.6174 31.7589 41.6818 32.1431C41.6818 32.2071 41.6818 32.3352 41.6818 32.3992C41.6818 32.5913 41.6174 32.7194 41.4241 32.7194C40.651 32.7194 39.8135 32.7194 39.0405 32.7194C38.8472 32.7194 38.7828 32.5913 38.7828 32.4632C38.7828 32.2071 38.6539 31.951 38.7184 31.6949C38.7184 31.6308 38.6539 31.6949 38.5895 31.6308C38.5895 31.5028 38.5251 31.3747 38.5251 31.2467C38.4606 30.7985 38.3962 30.4143 38.3318 29.9661C38.2674 29.774 38.2674 29.5819 38.203 29.3898C38.203 29.3258 38.203 29.3258 38.203 29.2617C38.203 28.8135 38.0741 28.4293 38.0097 27.9811C38.0097 27.597 37.8164 27.2128 37.8808 26.8286C37.8808 26.7005 37.8164 26.6365 37.752 26.5084C37.6876 26.2523 37.6876 25.9962 37.6232 25.7401C37.6232 25.612 37.5587 25.484 37.4943 25.3559C37.4299 24.9717 37.3655 24.5875 37.301 24.2034C37.301 24.1393 37.301 24.0753 37.2366 24.0113C37.1078 23.371 37.0433 22.7947 36.9145 22.1544C36.9145 22.0263 36.9145 21.9623 36.8501 21.8983C36.8501 21.8342 36.8501 21.8342 36.8501 21.7702C36.7857 21.386 36.7212 21.0018 36.6568 20.6177C36.528 19.9774 36.4635 19.3371 36.3347 18.6968C36.2703 18.5047 36.2703 18.3126 36.2059 18.1205C36.2059 17.9924 36.2059 17.9284 36.2059 17.8003C36.2059 17.4802 36.1414 17.096 36.077 16.7759C36.0126 16.5838 36.0126 16.3276 35.8837 16.1356C35.8193 15.6873 35.6905 15.1751 35.626 14.7269C35.626 14.5988 35.626 14.5348 35.5616 14.4067V14.3427C35.5616 14.2787 35.5616 14.2146 35.5616 14.0866C35.4328 13.4463 35.3684 12.806 35.2395 12.1657C35.1751 11.7175 35.0462 11.2052 34.9818 10.757C34.9818 10.693 34.9818 10.693 34.9174 10.629C34.9174 10.629 34.9174 10.629 34.9174 10.5649C34.9174 10.5009 34.9174 10.4369 34.9174 10.3728C34.9174 10.2448 34.853 10.1167 34.853 9.92462C34.853 9.47641 34.7241 9.02821 34.6597 8.51597C34.6597 8.38791 34.6597 8.25984 34.5309 8.25984C34.402 8.25984 34.4664 8.38791 34.402 8.51597C34.2732 8.64403 34.402 8.77208 34.402 8.90014C34.402 9.09223 34.3376 9.2203 34.3376 9.41239C34.2087 9.60448 34.2087 9.8606 34.2087 10.1167V10.1807C34.1443 10.3088 34.1443 10.4369 34.1443 10.5649C34.1443 10.821 34.0799 11.1412 34.0155 11.3973C33.8866 12.0376 33.8222 12.7419 33.6933 13.3822V13.4463C33.5001 13.7024 33.3712 14.0226 33.4357 14.4067C33.5001 14.5988 33.4356 14.7909 33.3712 14.983C33.3068 15.3672 33.3068 15.7514 33.178 16.0715C33.1135 16.1996 33.178 16.2636 33.178 16.3276C33.0491 16.7118 33.1135 17.096 32.9847 17.4802C32.9203 17.8003 32.7914 18.0565 32.7914 18.3766C32.7914 18.5047 32.8558 18.5687 32.8558 18.6327C32.7914 19.145 32.6626 19.6572 32.5982 20.2335C32.5337 20.7457 32.4049 21.258 32.3405 21.7702C32.3405 21.8342 32.3405 21.8983 32.3405 21.9623V22.0263C32.276 22.2184 32.276 22.4105 32.2116 22.6026C32.2116 22.6666 32.2116 22.7307 32.1472 22.7307C31.9539 22.7307 31.9539 22.9227 31.9539 23.0508C31.9539 23.435 31.9539 23.8192 31.8251 24.1393C31.7607 24.2674 31.6962 24.3314 31.7606 24.5235C31.8251 24.7156 31.6962 24.9077 31.6962 25.0998C31.6962 25.2278 31.6962 25.4199 31.6318 25.548C31.6318 25.612 31.6318 25.612 31.6318 25.676C31.6318 25.7401 31.6318 25.8681 31.6318 25.9322C31.6318 25.9962 31.6318 26.0602 31.6318 26.1883C31.503 26.3163 31.5674 26.5084 31.503 26.7005C31.4385 26.9566 31.3741 27.2128 31.3741 27.5329C31.3097 27.725 31.3097 27.9811 31.3097 28.1732C31.1809 28.4293 31.1808 28.6855 31.1164 28.9416C31.052 29.1977 30.9876 29.5179 30.9876 29.838C30.9876 29.902 30.9876 30.0301 30.9232 30.0941C30.8587 30.0301 30.9232 29.9661 30.8587 29.9661C30.8587 30.0941 30.8587 30.2222 30.7943 30.3502C30.7299 30.6064 30.7299 30.9265 30.6655 31.1826C30.601 31.3747 30.601 31.5028 30.601 31.6949C30.601 31.887 30.4722 32.015 30.4722 32.2071C30.4078 32.3352 30.4722 32.3992 30.4078 32.5273C30.2789 32.6553 30.1501 32.6553 29.9568 32.6553C29.2482 32.6553 28.5395 32.6553 27.8309 32.6553C27.4443 32.6553 27.3155 32.3992 27.4443 32.0791C27.4443 32.015 27.5087 31.951 27.5087 31.8229C27.5087 31.6308 27.5732 31.3747 27.6376 31.1826C27.702 30.9905 27.7664 30.7985 27.702 30.6064C27.702 30.4143 27.7664 30.2222 27.8309 30.0941C27.8953 29.902 27.8953 29.7099 27.8953 29.5179C27.8953 29.1337 28.153 28.8135 28.0885 28.3653C28.2818 28.0452 28.0885 27.661 28.2818 27.3408C28.4751 26.9566 28.3462 26.4444 28.4751 26.0602C28.5395 25.9322 28.6039 25.7401 28.5395 25.548V25.484C28.7328 25.3559 28.6683 25.1638 28.6039 24.9717V24.9077C28.7328 24.7156 28.6039 24.4595 28.6683 24.2034C28.6683 23.9472 28.7972 23.7551 28.7972 23.5631C28.7972 23.499 28.7972 23.435 28.7972 23.3069C28.7972 23.2429 28.7972 23.1148 28.7972 23.0508C28.7972 22.9868 28.7972 22.9227 28.7972 22.7947C28.8616 22.8587 28.8616 22.7947 28.8616 22.7307C28.8616 22.4745 28.926 22.2184 28.9905 21.9623C29.0549 21.6422 29.1193 21.322 29.1193 21.0018C29.2482 20.4256 29.3126 19.8493 29.4414 19.3371C29.4414 19.273 29.4414 19.209 29.4414 19.145C29.4414 19.0809 29.4414 18.9529 29.4414 18.8888C29.5059 18.8888 29.4414 18.8248 29.4414 18.8248C29.4414 18.7608 29.4414 18.6327 29.5058 18.5687C29.6347 17.9284 29.7635 17.2881 29.828 16.6478C29.8924 16.4557 29.8924 16.3276 29.8924 16.1356C29.9568 16.0075 29.9568 15.8154 30.0212 15.6233C30.0857 15.5593 30.1501 15.4952 30.1501 15.3672C30.1501 15.3032 30.1501 15.2391 30.2145 15.1751C30.2789 14.983 30.4078 14.7909 30.3434 14.5348C30.3434 14.4708 30.2789 14.2787 30.4722 14.2787C30.4722 14.2787 30.4722 14.2787 30.4722 14.2147C30.4722 13.9585 30.4722 13.7664 30.5366 13.5743C30.601 13.4463 30.5366 13.2542 30.5366 13.1261C30.5366 13.0621 30.5366 12.9981 30.5366 12.9981C30.7299 12.87 30.6655 12.6779 30.6655 12.4858C30.6655 12.1657 30.7299 11.9096 30.7943 11.5894C30.7943 11.2693 30.9232 10.9491 30.9232 10.629V10.5649C30.9876 10.5009 30.9876 10.4369 30.9232 10.3728C30.9232 10.3088 30.9232 10.3088 30.9876 10.2448C31.2453 10.1807 31.052 10.1167 30.9876 9.98866V9.92462C30.9876 9.86059 31.052 9.73254 31.052 9.66851C31.1164 9.60448 31.1808 9.47642 31.1164 9.41239C31.1164 9.34836 31.1164 9.2203 31.1164 9.15627C31.2453 8.77209 31.2453 8.32388 31.3097 7.87567C31.3097 7.81164 31.3097 7.7476 31.3097 7.7476C31.4385 7.55551 31.3741 7.29939 31.4385 7.1073C31.503 6.65909 31.5674 6.21088 31.6318 5.76266C31.7607 5.05833 31.8895 4.41804 31.9539 3.71371C31.9539 3.58565 32.0184 3.39355 32.0184 3.26549C32.0828 3.13743 32.0828 3.00937 32.0828 2.88131C32.1472 2.81728 32.0828 2.75326 32.1472 2.68922C32.276 2.4331 32.276 2.11296 32.3405 1.79281C32.3405 1.53669 32.4049 1.47266 32.6626 1.47266C33.6934 1.47266 34.7241 1.47266 35.7549 1.47266C35.8837 1.47266 36.0126 1.47264 36.1414 1.6007V1.66474C36.077 1.7928 36.2059 1.85683 36.2059 1.92086V1.98489C36.2059 2.04892 36.2059 2.11294 36.2059 2.17697C36.3347 2.43309 36.2703 2.75326 36.3991 3.00938C36.3991 3.32953 36.528 3.58564 36.528 3.90579C36.528 3.96982 36.5924 3.9058 36.5924 3.96983C36.5924 4.03386 36.5924 4.03385 36.5924 4.09788C36.6568 4.61012 36.7857 5.05834 36.8501 5.57058C36.9145 5.8267 36.9789 6.14684 36.9789 6.40297C37.0433 6.65909 37.0434 6.91521 37.1078 7.17133C37.1722 7.36343 37.1722 7.49148 37.2366 7.68357C37.2366 7.68357 37.2366 7.68357 37.2366 7.7476C37.2366 7.81163 37.2366 7.93969 37.2366 8.00372C37.301 8.32387 37.3655 8.64402 37.4299 8.96417C37.4943 9.41238 37.5587 9.79656 37.6876 10.2448C37.752 10.629 37.8164 11.0131 37.8808 11.3973C37.8808 11.4614 37.8808 11.3973 37.9453 11.3973C37.9453 11.4614 37.9453 11.5254 37.9453 11.5894C37.9453 11.6534 37.9453 11.7175 37.9453 11.7815C38.0741 12.6139 38.203 13.3823 38.3318 14.2147C38.3318 14.2787 38.3318 14.3427 38.3318 14.4067C38.3962 14.5988 38.3962 14.8549 38.4607 15.047C38.4607 15.1111 38.4606 15.1111 38.5251 15.1751C38.5251 15.1751 38.5251 15.2391 38.5895 15.2391C38.5895 15.3032 38.6539 15.4312 38.6539 15.4953C38.6539 15.5593 38.6539 15.6873 38.6539 15.7514C38.6539 15.8154 38.6539 15.8794 38.6539 15.9435C38.6539 16.2636 38.7183 16.5197 38.6539 16.8399V16.9039C38.9116 17.032 38.7828 17.2881 38.8472 17.4802C38.8472 17.6083 38.8472 17.8003 38.9116 17.9284C38.976 18.1205 39.0405 18.3126 39.0405 18.5047C39.0405 18.6327 39.0405 18.8248 39.1049 18.9529C39.1693 19.145 39.1693 19.3371 39.2337 19.5291C39.2337 19.5932 39.2337 19.6572 39.2982 19.7212V19.7853C39.2982 19.8493 39.2982 19.8493 39.2982 19.9133C39.2982 20.2975 39.427 20.6817 39.4914 21.1299C39.5558 21.6421 39.6847 22.1544 39.7491 22.6666C39.7491 22.7306 39.6847 22.7947 39.7491 22.8587V22.9228C39.6847 22.9868 39.7491 23.0508 39.7491 23.1148C39.878 23.1789 39.878 23.371 39.9424 23.499C39.9424 23.5631 40.0068 23.563 40.0068 23.6271C40.1357 24.1393 40.2001 24.7156 40.3289 25.2278C40.3934 25.612 40.4578 26.0602 40.5222 26.4444C40.5222 26.5725 40.5866 26.7005 40.5866 26.8286C40.5866 26.8286 40.5866 26.8286 40.651 26.8286C40.7155 26.8926 40.7155 27.0207 40.7155 27.0847C40.7155 27.1487 40.7155 27.2128 40.7155 27.2768C40.8443 28.0452 40.9731 28.7495 41.102 29.4538C41.2953 29.774 41.3597 30.0941 41.4241 30.4783C41.3597 30.5423 41.3597 30.6704 41.4241 30.4783Z" fill="#B7C0C4"/>
<path d="M59.7201 11.6534C59.7201 12.4218 59.7201 13.1261 59.7201 13.8945C59.7201 14.0866 59.7201 14.3427 59.7201 14.5348C59.7201 14.7269 59.7845 14.7269 59.9133 14.7269C61.5883 14.7269 63.2633 14.7269 64.9383 14.7269C65.0028 14.7269 65.0672 14.7269 65.1316 14.7269C65.0672 14.7909 65.0028 14.7909 64.9383 14.7909C63.2633 14.7909 61.5239 14.7909 59.8489 14.7909C60.0422 14.919 60.2354 14.855 60.4287 14.855C61.9104 14.855 63.3278 14.855 64.8095 14.855C65.1316 14.855 65.1316 14.855 65.1316 15.1751C65.1316 16.0715 65.1316 16.9039 65.1316 17.8003C65.1316 17.9924 65.0672 18.0565 64.8739 18.0565C64.8095 18.0565 64.6807 18.0565 64.5518 18.0565C63.0057 18.0565 61.5239 18.0565 59.9778 18.0565C59.9133 18.0565 59.7845 18.0565 59.7201 18.1205C59.7201 18.1205 59.7201 18.1845 59.6556 18.1845C59.6556 18.2485 59.6556 18.3126 59.6556 18.4406C59.6556 22.0263 59.6556 25.612 59.6556 29.1977C59.6556 29.3898 59.7845 29.3258 59.8489 29.3898C60.0422 29.4538 60.171 29.4538 60.3643 29.4538C62.0393 29.4538 63.7143 29.4538 65.3893 29.4538C65.5826 29.4538 65.7114 29.5819 65.5826 29.774C65.5181 29.9661 65.5182 30.1581 65.5182 30.4143C65.5182 30.8625 65.5182 31.2467 65.5182 31.6949C65.5182 31.951 65.5181 32.2071 65.5826 32.4632C65.5826 32.5913 65.5826 32.6553 65.4537 32.6553C65.1316 32.7194 64.7451 32.6553 64.423 32.6553C61.9749 32.6553 59.5268 32.6553 57.1432 32.6553C57.0787 32.6553 56.9499 32.6553 56.8854 32.6553C56.6922 32.6553 56.6278 32.5273 56.6278 32.3352C56.6278 32.0791 56.6278 31.8229 56.6278 31.5668C56.6278 21.8342 56.6278 12.0376 56.6278 2.30504C56.6278 2.04892 56.5633 1.85683 56.6278 1.6007C56.6278 1.47264 56.6922 1.47266 56.821 1.47266C59.5912 1.47266 62.3614 1.47266 65.0672 1.47266C65.196 1.47266 65.3249 1.47266 65.3893 1.47266C65.5826 1.47266 65.5826 1.60071 65.5826 1.72877C65.5826 2.56116 65.5826 3.45759 65.5826 4.28998C65.5826 4.61013 65.5826 4.61013 65.2604 4.61013C63.521 4.61013 61.7816 4.61013 60.0422 4.61013C59.9778 4.61013 59.9133 4.61013 59.7845 4.61013C59.5268 4.61013 59.4624 4.67416 59.5268 4.93028C59.5912 5.12237 59.5268 5.25042 59.5268 5.44251C59.5268 7.29939 59.5268 9.15627 59.5268 11.0131C59.5268 11.1412 59.5268 11.2052 59.5912 11.3333C59.5912 12.1017 59.5912 12.806 59.5912 13.5743C59.5912 13.8945 59.5912 14.2787 59.5912 14.5988C59.5912 14.5988 59.6556 14.5988 59.5912 14.5988C59.6556 13.6384 59.6557 12.742 59.7201 11.6534C59.6557 11.6534 59.6557 11.6534 59.7201 11.6534Z" fill="#B7C0C4"/>
<path d="M6.05589 1.40865C6.18474 1.40865 6.31359 1.40865 6.44243 1.34462C6.8934 1.21656 7.27993 1.21655 7.7309 1.21655C8.18186 1.21655 8.63282 1.28059 9.08378 1.40865C9.14821 1.40865 9.21262 1.40865 9.27705 1.40865C9.34147 1.34462 9.4059 1.40865 9.4059 1.40865C9.72802 1.53672 10.0501 1.66478 10.3722 1.79284C10.6944 1.9209 10.8232 2.11297 10.8232 2.49716C10.8232 3.39358 10.8232 4.29 10.8232 5.12239C10.8232 5.18642 10.7588 5.31449 10.6944 5.25046C10.3078 4.93031 9.92129 4.67418 9.47033 4.48209C9.34148 4.41806 9.1482 4.41806 9.01936 4.41806C8.89051 4.41806 8.76166 4.41806 8.63282 4.41806C8.69724 4.29 8.82608 4.41808 8.8905 4.35404C8.3107 4.29001 7.66647 4.29001 7.08667 4.61016C7.02224 4.61016 6.95781 4.6742 6.95781 4.6742C6.82897 4.73823 6.76454 4.80225 6.6357 4.86628C6.57127 4.86628 6.50686 4.93032 6.44243 4.99435C6.31359 5.12241 6.18474 5.25045 6.05589 5.44255C5.86262 5.69867 5.66935 5.89076 5.66935 6.21092C5.66935 6.27495 5.66937 6.27493 5.60494 6.33896C5.4761 6.46702 5.47608 6.65913 5.41166 6.85122C5.28282 7.55555 5.28282 8.19584 5.41166 8.90017C5.54051 9.54047 5.66936 10.1168 5.86263 10.693C5.92705 10.7571 5.92704 10.8851 5.99147 10.9491C6.05589 11.1412 6.12032 11.2693 6.18475 11.4614C6.18475 11.5254 6.18475 11.4614 6.24917 11.4614C6.24917 11.4614 6.24916 11.5254 6.31358 11.5254C6.31358 11.5894 6.31358 11.6535 6.37801 11.7175C6.37801 12.0377 6.44243 12.3578 6.70012 12.678C6.76455 12.742 6.82898 12.8701 6.82898 12.9981C6.82898 13.0621 6.82898 13.1262 6.8934 13.1262C7.08667 13.1902 7.08667 13.3183 7.08667 13.4463C7.08667 13.5103 7.08667 13.5744 7.15109 13.5744C7.21552 13.6384 7.15109 13.7024 7.15109 13.7665C7.21552 13.7024 7.1511 13.6384 7.21552 13.6384C7.34437 13.7024 7.34435 13.7665 7.34435 13.8945C7.40878 14.0226 7.40878 14.1507 7.47321 14.2147C7.47321 14.2147 7.47321 14.2147 7.47321 14.2787C7.53763 14.5989 7.66648 14.7909 7.85975 15.0471V15.1111C7.85975 15.2392 7.92416 15.3032 7.92416 15.3672C8.11743 15.6233 8.24628 15.9435 8.43955 16.2636C8.5684 16.3917 8.63282 16.5838 8.69724 16.7119C8.69724 16.8399 8.82608 16.9039 8.8905 16.968C8.95493 17.032 9.01936 17.1601 9.01936 17.2881C9.01936 17.5442 9.27705 17.6723 9.34147 17.9284C9.34147 18.0565 9.47033 18.1205 9.47033 18.1845C9.47033 18.2486 9.53474 18.2486 9.59916 18.2486C9.59916 18.3766 9.72802 18.5047 9.72802 18.6968C9.72802 18.7608 9.72801 18.8889 9.59916 18.8889C9.66358 18.8889 9.72802 18.8248 9.79244 18.8889C9.85687 18.9529 9.85685 19.0169 9.85685 19.081C9.79243 19.209 9.92128 19.145 9.9857 19.209C9.9857 19.209 10.0501 19.209 10.0501 19.2731C9.92128 19.5292 10.179 19.7213 10.179 19.9134C10.4367 20.0414 10.3722 20.4256 10.5655 20.6177C10.7588 20.8098 10.8232 21.1299 10.8876 21.386C10.8876 21.4501 10.9521 21.5141 11.0165 21.5141C11.0809 21.5781 11.0809 21.7062 11.1453 21.7702C11.3386 22.2825 11.403 22.7947 11.5963 23.3069C11.6607 23.499 11.6607 23.6271 11.6607 23.8192C11.6607 23.9473 11.6607 24.0753 11.7251 24.2034C11.7251 24.5876 11.7895 24.9077 11.7895 25.2919C11.7895 25.6761 11.7895 26.1243 11.7895 26.5085C11.7251 26.8286 11.7896 27.0847 11.7251 27.4049C11.7251 27.4689 11.7251 27.597 11.7251 27.661C11.5963 27.8531 11.6607 28.0452 11.5963 28.3013C11.5319 28.3653 11.5963 28.4934 11.5319 28.5574C11.4674 28.6215 11.4674 28.6855 11.4674 28.7495C11.3386 29.1337 11.2098 29.5179 11.0809 29.9021C11.0809 29.9661 11.0809 29.9661 11.0165 29.9661C11.0165 29.9661 11.0165 29.9021 10.9521 29.9021C10.8232 30.2222 10.6299 30.4783 10.4367 30.7344C10.3723 30.7985 10.3722 30.8625 10.3078 30.9265C10.1145 31.0546 9.9857 31.2467 9.85685 31.3748C9.79243 31.4388 9.72801 31.5028 9.66359 31.5028C9.47032 31.5668 9.34148 31.6949 9.14821 31.6949C9.01937 31.6949 9.01936 31.823 9.01936 31.887C8.95493 32.0151 8.76167 32.0151 8.69724 32.1431H8.63282C8.3107 32.2071 8.05301 32.3352 7.7309 32.4633C7.27993 32.5913 6.82897 32.5913 6.37801 32.6554C6.18474 32.6554 5.99147 32.6554 5.7982 32.6554C5.73378 32.6554 5.73377 32.6554 5.66935 32.6554C5.28281 32.6554 4.89628 32.5273 4.50974 32.4633C4.44532 32.4633 4.44531 32.4633 4.38089 32.3992C4.25204 32.2712 4.12321 32.3352 3.99437 32.2072C3.92994 32.1431 3.86551 32.1431 3.80108 32.0791C3.73666 32.0791 3.67225 32.0791 3.67225 32.0151C3.5434 31.823 3.28571 31.7589 3.02802 31.6949C2.89917 31.6309 2.83474 31.5668 2.89917 31.4388C2.89917 31.3107 2.89916 31.1827 2.83474 31.0546C2.83474 30.9906 2.77032 30.8625 2.83474 30.7985C2.96358 30.6704 2.96359 30.4783 2.96359 30.3503C2.96359 29.9021 2.9636 29.5179 3.02802 29.0697C3.02802 28.9416 3.02801 28.8135 3.22128 28.8776C3.2857 28.8776 3.28571 28.8776 3.35014 28.8776C3.60783 28.7495 3.60783 28.8135 3.67225 29.0697C3.86552 29.0056 3.99435 29.1337 4.1232 29.1977C4.25205 29.3258 4.44533 29.3258 4.6386 29.2618C4.83187 29.2618 4.9607 29.3258 5.15397 29.3898C5.86263 29.5819 6.50687 29.5179 7.21552 29.2618C7.40879 29.1337 7.60205 29.0697 7.79532 28.8776L7.85975 28.8135C8.18187 28.6215 8.31071 28.3653 8.43955 28.0452V27.9812C8.43955 27.9812 8.43956 27.9812 8.50398 27.9812C8.69725 27.725 8.69725 27.4049 8.76167 27.0847C8.76167 27.0207 8.76167 26.9567 8.76167 26.8926C8.89052 26.3804 8.82609 25.8682 8.76167 25.3559C8.69725 24.7796 8.5684 24.2674 8.43955 23.7552C8.43955 23.7552 8.43955 23.7552 8.37513 23.6911C8.37513 23.6271 8.37513 23.6271 8.37513 23.5631C8.3107 23.1149 8.11743 22.6667 7.98858 22.2825C7.98858 22.2185 7.98858 22.1544 7.92416 22.0904V22.0263C7.92416 21.8343 7.79532 21.7062 7.7309 21.5781C7.66647 21.4501 7.60206 21.3861 7.53763 21.258C7.53763 21.194 7.47321 21.1299 7.47321 21.0659C7.47321 20.7457 7.27994 20.5537 7.15109 20.3616C6.95782 20.0414 6.76456 19.6572 6.57129 19.2731C6.57129 19.145 6.50685 19.0169 6.6357 18.9529C6.57127 18.9529 6.44243 19.0169 6.37801 18.9529C6.31358 18.9529 6.31358 18.8889 6.31358 18.8889C6.12031 18.4407 5.79821 17.9924 5.60494 17.5442C5.54052 17.4802 5.54051 17.4162 5.47609 17.3522C5.47609 17.3522 5.47608 17.2881 5.41166 17.2881C5.34724 17.096 5.28282 16.9039 5.08955 16.7759C5.02512 16.7119 5.02512 16.7118 5.02512 16.6478C5.02512 16.4557 4.89628 16.3277 4.83186 16.1996C4.76743 16.0716 4.70302 15.8795 4.57417 15.7514C4.57417 15.7514 4.57417 15.7514 4.57417 15.6874C4.57417 15.5593 4.50974 15.4953 4.44532 15.4313C4.44532 15.3672 4.38089 15.3672 4.38089 15.3032C4.38089 15.1751 4.31648 15.0471 4.25205 14.919C4.12321 14.5989 3.92993 14.2787 3.80108 13.9586C3.67224 13.6384 3.54339 13.3823 3.47897 13.0621C3.47897 12.742 3.35013 12.4859 3.28571 12.2297C3.15686 11.8456 3.02802 11.3974 2.96359 11.0132C2.89917 10.7571 2.77032 10.5009 2.83474 10.1808C2.83474 10.1167 2.83474 10.0527 2.83474 9.98869C2.83474 9.98869 2.89916 9.92465 2.83474 9.92465C2.51262 9.92465 2.51262 9.86064 2.51262 9.79661C2.4482 9.60452 2.4482 9.41241 2.4482 9.28435C2.38377 9.02823 2.38379 8.77212 2.38379 8.516C2.38379 8.25988 2.38379 7.93972 2.38379 7.6836C2.38379 7.23539 2.4482 6.78717 2.51262 6.33896C2.57705 5.82672 2.7059 5.31449 2.89917 4.80224C2.96359 4.73821 2.96359 4.61016 2.96359 4.54613V4.48209C3.09244 4.35403 3.09243 4.22597 3.15685 4.09791C3.22128 3.90582 3.35012 3.71373 3.47897 3.52164C3.60782 3.45761 3.67224 3.32956 3.80108 3.26552C3.92993 3.20149 3.86552 3.07343 3.92994 2.94537C4.05878 2.75328 4.18764 2.62523 4.31648 2.43314C4.44533 2.36911 4.57416 2.17702 4.703 2.11299C4.76743 2.04896 4.89629 1.98492 4.96071 1.92089C5.15398 1.79283 5.34724 1.7288 5.47609 1.60074C5.47609 1.60074 5.54052 1.60073 5.54052 1.5367C5.66936 1.5367 5.73378 1.47269 5.86263 1.40865C5.92705 1.40865 5.99147 1.34462 6.05589 1.40865Z" fill="#B7C0C4"/>
<path d="M55.2107 8.96419C55.2107 8.7721 55.2107 8.58001 55.1463 8.38792C55.0819 7.81165 54.9531 7.23537 54.8242 6.72313C54.8242 6.6591 54.8242 6.59508 54.8242 6.53105C54.8242 6.53105 54.8242 6.53105 54.7598 6.46702C54.6309 6.40299 54.6309 6.33896 54.6309 6.2109C54.5665 6.01881 54.4377 5.82672 54.3732 5.63463C54.2444 5.44254 54.1155 5.25045 54.0511 4.99433C54.0511 4.99433 54.0511 4.9303 53.9867 4.9303C53.9223 4.86627 53.8579 4.80222 53.7934 4.73819C53.729 4.67416 53.6646 4.61014 53.6002 4.54611C53.6002 4.48208 53.5357 4.41804 53.5357 4.41804C53.4069 4.41804 53.4713 4.28999 53.4069 4.22596C53.1492 4.03387 53.0848 3.77775 52.8915 3.58566C52.7627 3.52163 52.6982 3.39357 52.505 3.32954H52.4405C52.4405 3.13745 52.2473 3.13745 52.2473 3.00939C52.1829 2.94536 52.1184 2.88132 52.054 2.81729C51.5386 2.49714 51.0232 2.177 50.5079 1.98491C50.3146 1.92088 50.1213 1.85685 49.928 1.72879C49.6059 1.60073 49.3482 1.5367 49.0261 1.47267C48.8973 1.5367 48.8329 1.40864 48.704 1.47267C48.3819 1.34461 47.9954 1.3446 47.6732 1.3446C46.3204 1.3446 44.9675 1.3446 43.5502 1.3446C43.4857 1.3446 43.3569 1.34461 43.2925 1.40864C43.2925 1.47267 43.2925 1.53669 43.2925 1.60072C43.2925 11.8455 43.2925 22.0263 43.2925 32.2712C43.2925 32.3352 43.2925 32.3992 43.2925 32.4633C43.3569 32.5913 43.4213 32.5913 43.5502 32.5913C44.4521 32.5913 45.2896 32.5913 46.1915 32.5913C46.3204 32.5913 46.4492 32.5273 46.3848 32.3992C46.3848 27.9811 46.3848 23.499 46.3848 19.081C46.3848 18.9529 46.3848 18.7608 46.4492 18.6327C46.5136 18.5687 46.6425 18.6327 46.7069 18.6327C47.2867 18.6327 47.8665 18.6327 48.3819 18.6327C48.5752 18.5687 48.704 18.6327 48.8973 18.5687C49.3482 18.5047 49.7992 18.3766 50.2502 18.2486H50.3146C50.3146 18.2486 50.3146 18.1845 50.379 18.1845C50.83 18.0565 51.2165 17.8003 51.6031 17.6083C51.6675 17.3521 51.9252 17.2881 52.1184 17.2241C52.1184 17.2241 52.1184 17.2241 52.1829 17.1601C52.2473 17.096 52.2473 16.968 52.3761 17.032C52.3761 17.032 52.4405 17.032 52.4405 16.968C52.5694 16.7759 52.6982 16.7118 52.8271 16.5198C52.8915 16.3917 53.0204 16.3277 53.1492 16.3277H53.2136C53.3425 16.1996 53.4713 16.0715 53.6002 15.8795C53.6646 15.7514 53.729 15.6873 53.7934 15.6233C53.9223 15.4312 53.9867 15.3032 54.1155 15.1111C54.3088 14.6629 54.5665 14.2147 54.6954 13.7664C54.7598 13.7024 54.7598 13.7024 54.7598 13.6384C54.7598 13.5744 54.7598 13.5103 54.8242 13.4463C55.0819 12.6139 55.2107 11.7175 55.2752 10.8211C55.2752 10.2448 55.2107 9.60449 55.2107 8.96419ZM52.1829 11.0132C52.1184 11.2693 52.054 11.5894 51.9896 11.8455C51.9252 11.9096 51.9896 12.0376 51.9252 12.1017C51.8607 12.2937 51.7963 12.5499 51.6675 12.742C51.6031 12.87 51.5386 12.9981 51.4742 13.0621C51.3454 13.2542 51.2809 13.4463 51.1521 13.5744C51.0232 13.7665 50.83 13.9585 50.6367 14.1506C50.4434 14.2147 50.3146 14.4068 50.1213 14.4708L50.0569 14.5348C49.7992 14.6629 49.5415 14.7909 49.2194 14.855C49.0261 14.983 48.7684 14.983 48.5752 15.047C48.4463 15.1111 48.3175 15.1111 48.1886 15.1111C48.1242 15.1111 48.0598 15.1111 47.9954 15.1111C47.9954 15.1751 47.9309 15.1751 47.8665 15.1751C47.48 15.1751 47.0934 15.1751 46.7713 15.1751C46.5136 15.1751 46.4492 15.1751 46.4492 14.855C46.4492 13.7665 46.4492 12.6139 46.4492 11.5254C46.4492 9.54046 46.4492 7.4915 46.4492 5.50656C46.4492 5.25044 46.4492 5.05835 46.4492 4.80223C46.4492 4.67417 46.5136 4.61015 46.6425 4.61015C47.029 4.61015 47.4156 4.61015 47.7377 4.61015C48.3175 4.61015 48.8973 4.67417 49.4127 4.86626C49.5415 4.99432 49.7992 5.05835 49.928 5.18641H49.9925C50.0569 5.25044 50.1213 5.31448 50.2502 5.31448C50.3146 5.31448 50.379 5.3785 50.4434 5.44253C50.5723 5.50656 50.7011 5.63462 50.83 5.76268C50.83 5.76268 50.83 5.76268 50.8944 5.82671C51.0232 6.0188 51.2165 6.21089 51.3454 6.40298C51.4098 6.53104 51.4742 6.59507 51.5386 6.72313C51.5386 6.72313 51.5386 6.72314 51.6031 6.78717C51.6675 6.91523 51.7319 7.10732 51.7963 7.23538C51.8607 7.36344 51.9252 7.49149 51.9252 7.61955C52.054 8.00373 52.1184 8.45194 52.1829 8.90015C52.1829 8.96418 52.1829 9.09226 52.1829 9.15629C52.1829 9.28435 52.2473 9.41239 52.2473 9.54045C52.1829 10.1808 52.2473 10.5649 52.1829 11.0132Z" fill="#B7C0C4"/>
<path d="M25.3831 32.6554C24.4167 32.6554 23.5148 32.6554 22.5485 32.6554C22.4196 32.6554 22.3552 32.5914 22.3552 32.4633C22.3552 32.3353 22.3552 32.2072 22.3552 32.0791C22.3552 27.469 22.3552 22.8588 22.3552 18.1846C22.3552 18.1206 22.2908 18.0565 22.2264 18.0565C21.9687 18.0565 21.711 17.9925 21.5177 18.0565C21.26 18.0565 20.9379 18.0565 20.6802 18.0565C20.6158 18.0565 20.6158 18.0565 20.5514 18.0565C20.1648 18.1206 19.8427 18.0565 19.4562 18.0565C19.1985 18.0565 18.8764 18.0565 18.6187 18.0565C18.2321 18.0565 17.8456 17.9925 17.5235 18.0565C17.4591 18.0565 17.3302 17.9925 17.2658 18.0565C17.0081 18.0565 16.686 18.0565 16.4283 18.1206C16.2994 18.1206 16.235 18.1846 16.2994 18.3127C16.2994 18.3767 16.2994 18.4407 16.2994 18.5047C16.2994 23.1149 16.2994 27.7251 16.2994 32.3353C16.2994 32.6554 16.2994 32.6554 15.9773 32.6554C15.2687 32.6554 14.4956 32.6554 13.7869 32.6554C13.4648 32.6554 13.4004 32.5914 13.4004 32.2712C13.4004 22.1545 13.4004 12.0377 13.4004 1.98497C13.4004 1.92094 13.4004 1.85692 13.4004 1.72886C13.4004 1.6008 13.4648 1.53676 13.6581 1.53676C14.4956 1.53676 15.3331 1.53676 16.1062 1.53676C16.235 1.53676 16.2994 1.6008 16.2994 1.72886C16.2994 5.95485 16.2994 10.2449 16.2994 14.4708C16.2994 14.5349 16.235 14.5989 16.2994 14.6629C16.3639 14.855 16.4927 14.855 16.6215 14.855C16.686 14.9191 16.8148 14.9191 16.8793 14.9191C18.5543 14.9191 20.2292 14.9191 21.9042 14.9191C21.9687 14.9191 22.0975 14.9191 22.1619 14.855C22.2908 14.9191 22.2908 14.791 22.3552 14.727C22.4196 14.6629 22.3552 14.5349 22.3552 14.4708C22.3552 10.3089 22.3552 6.21097 22.3552 2.04901C22.3552 1.85692 22.3552 1.6008 22.4196 1.40871C22.5485 1.34468 22.6129 1.40871 22.7417 1.40871C23.5792 1.40871 24.4167 1.40871 25.1898 1.40871C25.2542 1.40871 25.3187 1.40871 25.3831 1.47274C25.3831 11.7176 25.3831 22.0264 25.3831 32.2712C25.5119 32.3993 25.5119 32.5914 25.3831 32.6554Z" fill="#B7C0C4"/>
</svg>
