<svg width="24" height="24" viewBox="0 0 24 24" fill="none" xmlns="http://www.w3.org/2000/svg">
<path d="M12 24C5.383 24 0 18.617 0 12C0 5.383 5.383 0 12 0C18.617 0 24 5.383 24 12C24 18.617 18.617 24 12 24ZM12 1.5C6.21 1.5 1.5 6.21 1.5 12C1.5 17.79 6.21 22.5 12 22.5C17.79 22.5 22.5 17.79 22.5 12C22.5 6.21 17.79 1.5 12 1.5Z" fill="#00A2E1"/>
<path d="M11.9859 19.503C10.8269 19.503 9.70986 19.241 8.66686 18.724C7.20486 18 6.00086 16.795 5.27586 15.333C5.18686 15.154 5.17286 14.95 5.23686 14.76C5.30086 14.57 5.43486 14.416 5.61486 14.328C5.71786 14.277 5.83286 14.25 5.94786 14.25C6.23486 14.25 6.49286 14.41 6.61986 14.667C7.19986 15.837 8.16286 16.801 9.33286 17.38C10.1679 17.793 11.0599 18.003 11.9859 18.003C14.2899 18.003 16.3549 16.724 17.3749 14.667C17.5019 14.41 17.7599 14.25 18.0469 14.25C18.1619 14.25 18.2759 14.277 18.3799 14.328C18.5589 14.417 18.6929 14.57 18.7579 14.76C18.8219 14.95 18.8079 15.153 18.7189 15.333C17.4449 17.906 14.8649 19.503 11.9859 19.503Z" fill="#00A2E1"/>
<path d="M5.73218 9.51799C5.61418 9.51799 5.49618 9.48899 5.39018 9.43499C5.21218 9.34399 5.08018 9.18899 5.01818 8.99799C4.95618 8.80699 4.97318 8.60399 5.06518 8.42599C5.81618 6.95899 7.37018 6.01099 9.02318 6.01099C9.31718 6.01099 9.61218 6.04099 9.90018 6.09899C10.3052 6.18099 10.5682 6.57799 10.4862 6.98299C10.4152 7.33099 10.1062 7.58399 9.75118 7.58399C9.70218 7.58399 9.65318 7.57899 9.60318 7.56899C9.41018 7.52999 9.21518 7.50999 9.02018 7.50999C7.92618 7.50999 6.89718 8.13799 6.40018 9.10999C6.27118 9.36199 6.01518 9.51799 5.73218 9.51799Z" fill="#00A2E1"/>
<path d="M18.2678 9.51799C17.9848 9.51799 17.7288 9.36199 17.5998 9.10999C17.1018 8.13799 16.0738 7.51099 14.9788 7.51099C14.7848 7.51099 14.5898 7.53099 14.3988 7.56899C14.3478 7.57899 14.2988 7.58399 14.2508 7.58399C13.8948 7.58399 13.5858 7.33099 13.5148 6.98299C13.4748 6.78699 13.5138 6.58699 13.6248 6.41999C13.7358 6.25299 13.9048 6.13899 14.1008 6.09899C14.3888 6.04099 14.6838 6.01099 14.9778 6.01099C16.6308 6.01099 18.1848 6.95899 18.9358 8.42599C19.0268 8.60399 19.0438 8.80699 18.9818 8.99799C18.9198 9.18899 18.7878 9.34399 18.6098 9.43499C18.5048 9.48999 18.3858 9.51799 18.2678 9.51799Z" fill="#00A2E1"/>
</svg>
