<svg width="24" height="24" viewBox="0 0 24 24" fill="none" xmlns="http://www.w3.org/2000/svg">
<path d="M13.5 22.75C13.086 22.75 12.75 22.414 12.75 22C12.75 21.586 13.086 21.25 13.5 21.25C18.463 21.25 22.5 17.213 22.5 12.25C22.5 7.287 18.463 3.25 13.5 3.25C8.955 3.25 5.141 6.695 4.575 11.111L6.22 9.467C6.362 9.325 6.55 9.247 6.75 9.247C6.95 9.247 7.139 9.325 7.28 9.467C7.422 9.608 7.5 9.797 7.5 9.997C7.5 10.197 7.422 10.386 7.28 10.527L4.294 13.513C4.167 13.658 3.963 13.75 3.75 13.75C3.537 13.75 3.333 13.658 3.19 13.497L0.22 10.527C0.078 10.386 0 10.197 0 9.997C0 9.797 0.078 9.608 0.22 9.467C0.361 9.325 0.55 9.247 0.75 9.247C0.95 9.247 1.139 9.325 1.28 9.467L3.051 11.238C3.566 5.933 8.085 1.75 13.5 1.75C19.29 1.75 24 6.46 24 12.25C24 18.04 19.29 22.75 13.5 22.75Z" fill="#00A2E1"/>
<path d="M12.75 13.7469C12.336 13.7469 12 13.4109 12 12.9969V6.24695C12 5.83295 12.336 5.49695 12.75 5.49695C13.164 5.49695 13.5 5.83295 13.5 6.24695V12.2469H18C18.414 12.2469 18.75 12.5829 18.75 12.9969C18.75 13.4109 18.414 13.7469 18 13.7469H12.75Z" fill="#00A2E1"/>
</svg>
