<svg width="90" height="27" viewBox="0 0 90 27" fill="none" xmlns="http://www.w3.org/2000/svg">
<path d="M85.4332 19.0957C84.9608 19.0957 84.4883 19.0957 83.9372 19.0957C83.7797 19.0957 83.7797 19.174 83.7797 19.2522C83.8584 19.487 83.8584 19.8001 83.9372 20.0348C83.9372 20.0348 83.9372 20.0348 83.9372 20.1131C83.9372 20.5827 83.9372 20.974 83.8584 21.4435C83.8584 21.6783 83.7797 21.8348 83.6222 21.9914C83.4647 22.0696 83.386 22.1479 83.2285 22.1479C82.8348 22.2261 82.4411 22.1479 82.2836 21.7566C82.2049 21.5218 82.2049 21.287 82.1261 21.1305C82.1261 20.974 82.1261 20.8957 82.1261 20.7392C82.1261 20.2696 82.1261 19.8001 82.1261 19.3305C82.1261 19.2522 82.0474 19.174 81.9687 19.174C81.0238 19.174 80.1576 19.174 79.2128 19.174C78.6616 19.174 78.1891 19.174 77.638 19.174C77.5592 19.174 77.4805 19.174 77.4805 19.3305C77.4805 19.7218 77.4805 20.1914 77.4805 20.5827C77.4805 20.8174 77.4805 20.974 77.5592 21.2088C77.5592 21.3653 77.5592 21.5218 77.638 21.6783C77.638 21.8348 77.7167 22.0696 77.7167 22.2261C77.8742 22.6957 77.9529 23.1653 78.2679 23.6348C78.2679 23.7131 78.3466 23.7914 78.4254 23.8696C78.6616 24.2609 78.9765 24.4957 79.3702 24.8088L79.449 24.887C79.6852 25.0435 79.8427 25.2 80.0789 25.2783C80.3939 25.4348 80.7876 25.5914 81.1025 25.6696C81.575 25.7479 81.9687 25.9044 82.4411 25.9044C82.5199 25.9044 82.5986 25.9044 82.6773 25.9044C82.9923 25.9044 83.386 25.9044 83.7009 25.9044C83.7797 25.9044 83.8584 25.9044 83.8584 25.9044C83.9372 25.9044 84.0159 25.9044 84.0946 25.9044C84.4883 25.9044 84.8033 25.8261 85.197 25.6696C85.4332 25.5914 85.6695 25.5131 85.9057 25.4348C86.6931 25.1218 87.323 24.574 87.7954 23.8696C87.8742 23.7131 87.9529 23.6348 88.0316 23.4001C88.3466 22.8522 88.4253 22.2262 88.5041 21.6783C88.5041 21.4435 88.5828 21.1305 88.5828 20.8957C88.5828 20.8175 88.5828 20.7392 88.5828 20.5827C88.5828 20.5044 88.5828 20.4261 88.5828 20.3479C88.5828 19.9566 88.5828 19.6435 88.5828 19.2522C88.5041 19.2522 88.4254 19.2522 88.3466 19.2522C87.5592 19.0957 86.5356 19.0957 85.4332 19.0957ZM83.8584 21.8348C83.8584 21.8348 83.9372 21.8348 83.8584 21.8348C83.9372 21.9131 83.8584 21.9131 83.8584 21.8348C83.8584 21.9131 83.8584 21.8348 83.8584 21.8348ZM77.7954 20.7392C77.7954 20.7392 77.7954 20.8174 77.7954 20.7392C77.7167 20.8174 77.7167 20.8174 77.7954 20.7392C77.7167 20.8174 77.7167 20.8174 77.7954 20.7392C77.7954 20.8174 77.7954 20.7392 77.7954 20.7392ZM77.7167 21.5218C77.7167 21.5218 77.7167 21.6001 77.7167 21.5218C77.7167 21.6001 77.7167 21.6001 77.7167 21.5218C77.7167 21.6001 77.7167 21.5218 77.7167 21.5218Z" fill="#B7C0C4"/>
<path d="M4.96067 9.07818C4.96067 8.99991 4.96067 8.99991 4.96067 8.92164C4.96067 8.84338 4.96069 8.76514 4.8032 8.76514C4.8032 8.76514 4.72445 8.76514 4.64571 8.76514C3.54335 8.76514 2.44099 8.76514 1.41736 8.76514C1.33862 8.76514 1.33864 8.76514 1.2599 8.76514H1.18115C1.18115 9.07818 1.18115 9.39121 1.18115 9.70425C1.18115 9.86077 1.18115 10.0173 1.18115 10.1738V10.2521C1.25989 10.3303 1.2599 10.3304 1.33864 10.3304C1.57486 10.3304 1.73233 10.3304 1.96855 10.3304C2.12603 10.3304 2.12602 10.3303 2.20476 10.4869C2.2835 10.7216 2.20476 10.9564 2.20476 11.1912C2.20476 11.2695 2.20476 11.2695 2.20476 11.3477C2.20476 12.2086 2.20476 12.9912 2.20476 13.8521C2.20476 14.0869 2.20476 14.3217 2.20476 14.5564C2.20476 14.8695 2.20476 15.1825 2.20476 15.4956C2.20476 15.7303 2.20476 15.9651 2.20476 16.1217C2.20476 16.2782 2.20476 16.3564 2.20476 16.513C2.20476 16.6695 2.28351 16.6695 2.36225 16.6695C2.8347 16.6695 3.30713 16.6695 3.77957 16.6695C3.93705 16.6695 4.0158 16.5912 4.0158 16.4347C4.0158 14.4782 4.0158 12.5216 4.0158 10.4869C4.0158 10.4086 4.0158 10.4086 4.0158 10.3304C4.09454 10.3304 4.17327 10.3304 4.25201 10.3304C4.40949 10.3304 4.64572 10.3304 4.8032 10.3304H4.88195C4.96069 10.3304 5.03942 10.3303 5.03942 10.1738C5.03942 10.0173 5.03942 9.86077 5.03942 9.70425C4.96068 9.54773 4.96067 9.31296 4.96067 9.07818Z" fill="#B7C0C4"/>
<path d="M7.79541 3.52176C7.79541 4.69567 7.79541 5.86958 7.79541 7.04349C7.79541 7.12176 7.87416 7.04349 7.9529 7.04349C9.68518 7.04349 11.4962 7.04349 13.2285 7.04349C13.2285 6.26089 13.2285 5.55654 13.2285 4.77393C13.386 4.77393 13.4647 4.77393 13.6222 4.77393C13.7009 4.77393 13.7009 4.77393 13.7797 4.77393C14.1734 4.77393 14.5671 4.93044 14.8033 5.32175C14.8033 5.47827 14.882 5.55653 14.882 5.71305C14.882 6.02609 14.882 6.26088 14.9608 6.57392C14.9608 7.20001 14.9608 7.74785 14.9608 8.37394C14.9608 9.31307 14.9608 10.1739 14.9608 11.1131C14.9608 11.8174 14.9608 12.5218 14.9608 13.2261C14.9608 14.1652 14.9608 15.0261 14.9608 15.9652C14.9608 16.3565 14.9608 16.7478 14.9608 17.2174C14.9608 17.3739 15.0395 17.4522 15.197 17.4522C16.6143 17.4522 18.1104 17.4522 19.5277 17.4522C19.7639 17.4522 20.0001 17.4522 20.2364 17.4522C20.3151 17.4522 20.3938 17.4522 20.3938 17.2957C20.3938 16.9044 20.3938 16.5131 20.3938 16.0435C20.3938 15.0261 20.3938 14.0087 20.3938 12.9913C20.3938 12.1305 20.3938 11.2696 20.3938 10.4087C20.3938 9.54783 20.3938 8.68697 20.3938 7.8261C20.3938 7.66958 20.3938 7.43479 20.3938 7.27827C20.3938 7.27827 20.3938 7.27829 20.3938 7.20003C20.3938 6.57394 20.3938 5.94784 20.3151 5.40001C20.3151 5.16523 20.3151 4.85219 20.2364 4.6174C20.2364 4.46088 20.2364 4.38262 20.1576 4.2261C20.0789 3.91305 20.0001 3.60003 19.8427 3.28698C19.6852 2.89568 19.5277 2.58262 19.2127 2.26958C19.0553 2.03479 18.819 1.87828 18.5828 1.6435C18.2679 1.40872 17.9529 1.25219 17.6379 1.09566C17.5592 1.0174 17.5592 1.0174 17.4805 1.0174C17.323 0.939137 17.1655 0.86089 17.008 0.86089C16.9293 0.782629 16.8505 0.782625 16.7718 0.782625C16.7718 0.782625 16.7718 0.78262 16.7718 0.704359C16.6143 0.626098 16.4568 0.626093 16.2994 0.626093C16.2206 0.626093 16.0631 0.626093 15.9844 0.626093C15.9844 0.626093 15.9844 0.626093 15.9057 0.626093C15.512 0.547832 15.1183 0.547852 14.6458 0.547852C14.4883 0.547852 14.3308 0.547852 14.1734 0.547852C14.0946 0.547852 13.9372 0.547852 13.8584 0.547852C13.7797 0.547852 13.7009 0.547852 13.6222 0.547852H13.5435C13.4647 0.547852 13.4647 0.547852 13.386 0.547852H13.3072C13.1497 0.547852 12.9923 0.547852 12.9135 0.547852C11.26 0.547852 9.5277 0.547852 7.87416 0.547852V0.626093V0.704359C7.79541 1.56523 7.79541 2.50436 7.79541 3.52176Z" fill="#B7C0C4"/>
<path d="M88.7402 17.6086C88.7402 17.6869 88.7402 17.6869 88.819 17.6869C88.819 17.6869 88.819 17.6086 88.7402 17.6086C88.819 17.6086 88.7402 17.6086 88.7402 17.6086Z" fill="#B7C0C4"/>
<path d="M77.5591 12.3651C77.5591 12.4434 77.5591 12.5217 77.6378 12.6782C77.7165 13.1477 77.874 13.6173 78.1102 14.0869C78.2677 14.3999 78.5827 14.713 78.8189 15.026L78.8976 15.1042C79.0551 15.2608 79.1339 15.339 79.2913 15.4955C79.3701 15.5738 79.3701 15.6521 79.4488 15.6521L79.5276 15.7303C79.7638 15.9651 80.0787 16.1999 80.3937 16.3564C80.8661 16.6695 81.3386 16.9825 81.811 17.2956C82.0472 17.4521 82.2835 17.6086 82.5197 17.7651C82.5984 17.8434 82.6772 17.8434 82.8347 17.8434C83.5433 17.8434 84.1732 17.8434 84.8819 17.8434C86.063 17.8434 87.2441 17.8434 88.5039 17.8434C88.5827 17.8434 88.6614 17.8434 88.6614 17.6869C88.5827 17.4521 88.5827 17.2173 88.5039 17.0608C88.4252 16.826 88.3465 16.5912 88.2677 16.3564C88.2677 16.2782 88.189 16.2782 88.189 16.1999C88.0315 15.8869 87.874 15.5738 87.5591 15.339C87.3228 15.1043 87.0866 14.8695 86.8504 14.7129C86.5354 14.3999 86.1417 14.1651 85.748 13.9303C85.6693 13.9303 85.6693 13.8521 85.5906 13.8521C85.1969 13.6173 84.8819 13.3825 84.4882 13.1477L84.4095 13.0695L84.3307 12.9912C84.1732 12.913 84.0945 12.8347 83.937 12.7564C83.6221 12.5216 83.3071 12.2869 82.9921 12.0521C82.9134 11.9738 82.9134 11.9738 82.8347 11.8956C82.5984 11.5825 82.2835 11.3477 82.2047 10.8782C82.2047 10.6434 82.126 10.4086 82.126 10.2521V10.1738C82.126 9.70425 82.126 9.31294 82.2047 8.84337C82.2835 8.76511 82.2835 8.60859 82.3622 8.53033C82.4409 8.37381 82.5984 8.29556 82.7559 8.2173C82.9921 8.13903 83.2284 8.2173 83.5433 8.29556C83.7008 8.45208 83.7795 8.60861 83.7795 8.76513C83.7795 8.99991 83.7795 9.15643 83.8583 9.39121C83.8583 9.46947 83.8583 9.54772 83.8583 9.62598C83.8583 9.93902 83.8583 10.1738 83.8583 10.4869C83.8583 10.7999 83.8583 11.1129 83.8583 11.3477C83.8583 11.426 83.937 11.5043 84.0158 11.5043C84.3307 11.5043 84.6457 11.5043 84.9606 11.5043C86.063 11.5043 87.1654 11.5043 88.2677 11.5043C88.4252 11.5043 88.4252 11.5043 88.4252 11.3477C88.4252 11.0347 88.4252 10.7216 88.4252 10.4086C88.4252 10.0173 88.4252 9.70425 88.4252 9.31294C88.4252 9.23468 88.4252 9.15643 88.4252 9.07817C88.4252 8.68687 88.4252 8.29556 88.2677 7.90426C88.189 7.51295 87.9528 7.12165 87.7165 6.80861C87.4803 6.33904 87.0866 6.02598 86.6929 5.71294C86.4567 5.55642 86.2205 5.39989 85.9843 5.32163C85.1181 4.85207 84.1732 4.69556 83.2284 4.69556C82.9921 4.69556 82.6772 4.69556 82.441 4.69556C82.2047 4.69556 81.9685 4.69556 81.7323 4.77382C81.1024 4.85208 80.4724 5.00859 79.9213 5.32163C79.685 5.39989 79.4488 5.55642 79.2126 5.71294C79.0551 5.7912 78.8976 5.94772 78.7402 6.10424C78.3465 6.49555 78.0315 6.88686 77.874 7.43469C77.7953 7.66947 77.7165 7.82598 77.7165 8.06076C77.6378 8.21729 77.6378 8.45208 77.6378 8.6086C77.5591 8.84338 77.5591 8.99989 77.5591 9.23468V9.31294C77.4803 10.1738 77.4803 10.9564 77.5591 11.8173C77.5591 11.9738 77.6378 12.1303 77.6378 12.3651C77.5591 12.2869 77.5591 12.2869 77.5591 12.3651ZM86.8504 6.026C86.9291 6.026 86.9291 6.026 86.8504 6.026C86.9291 6.026 86.9291 6.026 86.8504 6.026Z" fill="#B7C0C4"/>
<path d="M88.5039 8.60876C88.5039 8.5305 88.5039 8.60876 88.5039 8.60876C88.4251 8.60876 88.4251 8.60876 88.5039 8.60876Z" fill="#B7C0C4"/>
<path d="M66.7714 19.1739C66.0628 19.1739 65.2754 19.1739 64.5667 19.1739C64.2518 19.1739 64.0155 19.0174 63.8581 18.7826C63.7793 18.5478 63.7006 18.313 63.5431 18.1565C63.3856 18.7826 63.2281 19.3304 62.9919 19.9565V20.0348C62.9919 20.113 62.9132 20.1913 62.9132 20.1913C62.7557 20.6608 62.677 21.0522 62.5195 21.5217C62.5195 21.6 62.5195 21.6782 62.4407 21.7565C62.362 21.913 62.362 22.0695 62.2833 22.2261C62.2045 22.4609 62.1258 22.6174 61.8896 22.7739C61.4171 22.8522 61.1809 22.7739 61.0234 22.3826C60.9447 22.1478 60.9447 21.8348 60.8659 21.6C60.8659 21.1304 60.7872 20.6609 60.7085 20.2695C60.7085 20.1913 60.7085 20.113 60.7085 20.0348C60.6297 19.8 60.7085 19.4869 60.6297 19.2522C60.6297 19.0956 60.6297 18.9391 60.551 18.7826C60.551 18.4696 60.4722 18.1565 60.3935 17.7652C60.3935 17.5304 60.3148 17.2956 60.3148 17.1391C60.3148 16.8261 60.236 16.5913 60.236 16.2782C60.1573 15.8869 60.1573 15.4174 60.0785 15.0261C60.0785 14.9478 60.0785 14.9478 59.9998 14.9478C59.9998 14.9478 60.0785 14.8696 59.9998 14.8696C59.9998 14.5565 59.9211 14.2435 59.8423 13.9304C59.8423 13.6956 59.7636 13.3826 59.7636 13.1478C59.7636 13.0695 59.7636 12.913 59.7636 12.8348C59.7636 12.5217 59.6848 12.1304 59.6061 11.8174C59.5274 12.2087 59.3699 12.6783 59.3699 13.0696C59.2911 13.1478 59.2911 13.2261 59.2911 13.3043C59.2124 13.4609 59.2124 13.6956 59.1337 13.8522C59.0549 14.1652 58.9762 14.4 58.9762 14.713C58.8974 14.8695 58.8974 15.1043 58.8974 15.2609C58.8187 15.3391 58.8974 15.4174 58.8974 15.4174C58.8187 15.6522 58.8187 15.8869 58.74 16.0435C58.6612 16.3565 58.5825 16.6696 58.5825 16.9826C58.5037 17.1391 58.5037 17.2956 58.5037 17.4522C58.5037 17.5304 58.5037 17.5304 58.5037 17.6087C58.425 17.9217 58.3463 18.1565 58.3463 18.4696C58.2675 18.5478 58.1888 18.6261 58.11 18.7043C57.9525 18.7826 57.7951 18.8609 57.5589 18.8609C56.8502 18.8609 56.1415 18.8609 55.4329 18.8609C55.3541 18.8609 55.2754 18.8608 55.2754 19.0174C55.2754 19.2522 55.2754 19.4869 55.3541 19.8C55.3541 19.8782 55.3541 20.0348 55.3541 20.113C55.3541 20.1913 55.3541 20.2696 55.3541 20.3478C55.3541 20.4261 55.3541 20.5826 55.3541 20.6609C55.4329 21.0522 55.4329 21.4435 55.5903 21.913C55.5903 22.1478 55.6691 22.3043 55.7478 22.5391C55.7478 22.6956 55.8266 22.7739 55.9053 22.8522C56.0628 23.3217 56.299 23.7913 56.6927 24.1826C56.6927 24.2609 56.7714 24.2609 56.7714 24.3391V24.4174C56.8502 24.4956 56.9289 24.6522 57.0864 24.7304C57.6376 25.2 58.3462 25.513 59.0549 25.6695C59.5274 25.7478 59.9211 25.8261 60.3935 25.8261C60.4722 25.8261 60.551 25.8261 60.6297 25.8261C60.7085 25.8261 60.7872 25.8261 60.8659 25.8261H60.9447C61.1809 25.8261 61.4959 25.8261 61.7321 25.8261C61.8108 25.8261 61.8896 25.8261 61.8896 25.8261C61.9683 25.8261 62.047 25.8261 62.1258 25.8261C62.362 25.8261 62.677 25.8261 62.9132 25.7478C63.3856 25.5913 63.8581 25.513 64.2518 25.2782C64.6455 25.0435 65.1179 24.8087 65.4329 24.4174L65.5116 24.3391C65.5904 24.2609 65.6691 24.1826 65.7478 24.1043C65.984 23.8695 66.1415 23.5565 66.299 23.2435C66.614 22.7739 66.7715 22.3043 66.9289 21.8348C66.9289 21.7565 66.9289 21.6783 67.0077 21.6C67.1652 21.0522 67.2439 20.5826 67.2439 20.0348C67.2439 19.8 67.2439 19.5652 67.3226 19.3304C67.0077 19.1739 66.9289 19.1739 66.7714 19.1739ZM63.1494 20.7391C63.1494 20.8174 63.1494 20.8174 63.1494 20.7391C63.1494 20.8174 63.0707 20.8174 63.1494 20.7391C63.0707 20.8174 63.0707 20.8174 63.1494 20.7391C63.0707 20.8174 63.0707 20.8174 63.1494 20.7391C63.0707 20.8174 63.1494 20.7391 63.1494 20.7391ZM59.9998 15.6522C60.0785 15.6522 60.0785 15.5739 59.9998 15.6522C60.0785 15.5739 60.0785 15.6522 59.9998 15.6522ZM57.9526 25.2782C58.0313 25.2782 58.0313 25.2782 57.9526 25.2782C58.0313 25.2782 58.0313 25.2782 57.9526 25.2782Z" fill="#B7C0C4"/>
<path d="M46.2994 18.9392C45.9844 18.9392 45.7482 18.9392 45.4333 18.9392C44.2522 18.9392 43.1498 18.9392 41.9687 18.9392C41.8112 18.9392 41.8112 19.0175 41.8112 19.0958C41.8112 19.3305 41.8112 19.5653 41.8112 19.8001C41.7325 19.9566 41.8112 20.0349 41.8112 20.1914C41.8112 20.2697 41.8112 20.3479 41.8112 20.3479C41.8112 20.7392 41.7325 21.0523 41.6537 21.4436C41.6537 21.5218 41.6537 21.5218 41.6537 21.6001C41.575 21.8349 41.4175 22.0697 41.1813 22.1479C40.6301 22.2262 40.3939 22.0697 40.1577 21.5218C40.1577 21.4436 40.0789 21.2871 40.0789 21.2088C40.0789 20.974 40.0002 20.8175 40.0002 20.5827C40.0002 20.1131 40.0002 19.5653 40.0002 19.0958C40.0002 19.0175 40.0002 18.9392 39.8427 18.9392C39.6065 18.9392 39.3703 18.9392 39.1341 18.9392C37.7167 18.9392 36.3781 18.9392 34.9608 18.9392C34.8033 18.9392 34.7246 18.9392 34.8034 19.0958C34.8034 19.3305 34.8033 19.4871 34.8821 19.7219C34.8821 19.8001 34.8821 19.8784 34.8821 19.8784C34.8821 19.9566 34.8821 19.9566 34.8821 20.0349C34.8821 20.2697 34.8821 20.5827 34.9608 20.8175C34.9608 21.0523 35.0396 21.2871 35.1183 21.5218C35.2758 22.1479 35.4333 22.6958 35.7482 23.2436C35.827 23.4784 35.9844 23.6349 36.1419 23.7914V23.8697C36.2207 23.9479 36.2994 24.0262 36.2994 24.1044C37.2443 25.1218 38.4254 25.5914 39.764 25.6697C39.8427 25.6697 39.9214 25.6697 40.0002 25.6697C40.0789 25.6697 40.1577 25.6697 40.1577 25.6697C40.3939 25.6697 40.7089 25.6697 40.9451 25.6697C41.0238 25.6697 41.1026 25.6697 41.1026 25.6697C41.1813 25.6697 41.26 25.6697 41.3388 25.6697C41.8112 25.6697 42.2836 25.5131 42.7561 25.3566C43.3073 25.1218 43.8585 24.8871 44.3309 24.4175C44.6459 24.1827 44.8821 23.8697 45.1183 23.4784V23.4001C45.197 23.2436 45.2758 23.1653 45.3545 23.0088C45.512 22.774 45.6695 22.5392 45.7482 22.3045C45.827 22.1479 45.9057 21.9132 45.9844 21.6784C45.9844 21.5219 46.0632 21.4436 46.0632 21.2871C46.2207 20.8958 46.2207 20.4262 46.2994 20.0349C46.2994 19.8784 46.2994 19.7218 46.2994 19.5653C46.2994 19.3305 46.2994 19.0958 46.3781 18.7827C46.3781 18.9392 46.3781 18.9392 46.2994 18.9392Z" fill="#B7C0C4"/>
<path d="M33.4648 18.9392C32.7562 18.9392 32.0475 18.9392 31.4176 18.9392C31.1026 18.9392 30.8664 18.7826 30.7089 18.4696C30.6302 18.2348 30.5515 18.0783 30.394 17.9218C30.394 17.9218 30.394 17.9218 30.3152 17.9218C30.1577 18.4696 30.0003 19.0174 29.8428 19.487C29.8428 19.5652 29.764 19.5652 29.764 19.6435C29.6853 19.8783 29.6066 20.1131 29.6066 20.2696C29.4491 20.6609 29.3703 21.1305 29.2129 21.5218C29.1341 21.7565 29.0554 21.9131 29.0554 22.1478C28.8979 22.4609 28.6617 22.6174 28.3467 22.5391C28.0318 22.4609 27.8743 22.2261 27.7955 21.8348C27.7955 21.7565 27.7168 21.6 27.7168 21.5218C27.6381 21.0522 27.6381 20.5826 27.5593 20.1913C27.5593 20.1131 27.5593 20.0348 27.5593 19.9565C27.5593 19.5652 27.4806 19.2522 27.4018 18.8609C27.4018 18.7044 27.4018 18.5478 27.3231 18.3131C27.3231 18.0783 27.2444 17.8435 27.2444 17.6087C27.2444 17.5305 27.2444 17.4522 27.1656 17.4522C27.0869 16.9826 27.0869 16.5913 27.0081 16.1218C27.0081 15.887 26.9294 15.6522 26.9294 15.4957C26.9294 15.4174 26.9294 15.3392 26.9294 15.2609C26.9294 14.9479 26.8507 14.6348 26.7719 14.3218C26.7719 14.2435 26.7719 14.2435 26.7719 14.1652C26.6932 13.8522 26.6932 13.4609 26.6144 13.1478C26.6144 13.0696 26.6144 12.9131 26.5357 12.8348C26.457 12.4435 26.457 12.0522 26.3782 11.6609C26.2995 12.1305 26.2207 12.5218 26.142 12.9913C26.142 13.0696 26.0633 13.1478 26.0633 13.2261C25.9845 13.5391 25.9058 13.8522 25.827 14.2435C25.7483 14.5566 25.6696 14.8696 25.5908 15.2609C25.5121 15.5739 25.4333 15.887 25.4333 16.2C25.3546 16.5131 25.2759 16.9044 25.1971 17.2174C25.1184 17.2957 25.1184 17.3739 25.1184 17.4522V17.5305C25.0396 17.6087 25.0396 17.687 25.0396 17.7653C24.9609 18 24.9609 18.3131 24.7247 18.5479C24.4884 18.7044 24.2522 18.7044 24.016 18.7044C23.3861 18.7044 22.7562 18.7044 22.205 18.7044C21.6538 18.7044 21.6538 18.7044 21.6538 19.2522C21.6538 19.487 21.6538 19.8 21.7326 20.0348C21.7326 20.5826 21.8113 21.1305 21.89 21.6783C21.89 21.7566 21.9688 21.8348 21.9688 21.9913C22.0475 22.5392 22.2837 23.0087 22.52 23.4783C22.6774 23.7913 22.8349 24.0261 22.9924 24.2609C23.0711 24.3392 23.1499 24.4957 23.2286 24.5739C23.4648 24.9652 23.8585 25.1218 24.2522 25.3565C24.5672 25.5131 24.8822 25.5913 25.1971 25.6696C25.6696 25.8261 26.142 25.9044 26.6932 25.9044C26.7719 25.9044 26.8507 25.9044 26.9294 25.9044C27.3231 25.9044 27.7168 25.9044 28.1105 25.9044C28.1893 25.9044 28.268 25.9044 28.3467 25.9044C28.5042 25.9044 28.5829 25.9044 28.7404 25.9044C29.0554 25.8261 29.4491 25.8261 29.764 25.6696C29.764 25.6696 29.8428 25.6696 29.8428 25.5913C30.7089 25.2783 31.4176 24.8087 31.9688 24.1044C32.205 23.8696 32.3625 23.5566 32.5199 23.2435C32.7562 22.8522 32.9136 22.4609 32.9924 22.0696C33.1499 21.6 33.2286 21.1304 33.3073 20.5826C33.3073 20.4261 33.3073 20.3478 33.3073 20.1913C33.3073 20.1131 33.3073 20.0348 33.3073 19.9565V19.8783C33.3861 19.6435 33.3073 19.4087 33.3861 19.1739C33.6223 18.9392 33.5436 18.9392 33.4648 18.9392Z" fill="#B7C0C4"/>
<path d="M33.6223 10.9566C33.6223 10.7218 33.6223 10.487 33.5436 10.174C33.5436 10.0957 33.5436 10.0174 33.5436 9.93919C33.5436 9.39136 33.4648 8.92179 33.2286 8.37397C33.2286 8.29571 33.1499 8.13917 33.1499 8.06091C33.0711 7.82612 32.9924 7.59134 32.8349 7.35656C32.7562 7.20004 32.6774 7.04351 32.5199 6.88699C32.205 6.41743 31.89 6.02612 31.4176 5.71308C31.2601 5.55656 31.1026 5.4783 30.9451 5.40004C30.8664 5.32178 30.7089 5.24353 30.6302 5.24353C30.6302 5.16527 30.5515 5.16527 30.4727 5.16527C29.6853 4.77396 28.8192 4.61743 27.953 4.61743C27.7168 4.61743 27.4018 4.61743 27.1656 4.61743C26.9294 4.61743 26.6932 4.61744 26.457 4.6957C25.9058 4.77396 25.2759 4.93049 24.8034 5.24353C24.7247 5.24353 24.7247 5.24351 24.6459 5.32177C24.4097 5.40004 24.2522 5.55656 24.016 5.71308C23.9373 5.79134 23.9373 5.79135 23.8585 5.86961C23.701 6.02613 23.5436 6.18266 23.3861 6.33918C23.2286 6.4957 23.1499 6.57397 22.9924 6.80875C22.9137 6.88701 22.8349 7.04353 22.7562 7.12179C22.5987 7.35657 22.4412 7.66962 22.2837 7.98266C22.205 8.13919 22.205 8.21745 22.1263 8.37397C22.0475 8.45223 22.0475 8.53048 22.0475 8.68701C21.9688 8.92179 21.89 9.15656 21.89 9.31308C21.8113 9.62613 21.7326 10.0174 21.7326 10.4087V10.487C21.6538 10.8 21.6538 11.1131 21.6538 11.4261V11.5044C21.6538 12.3653 21.6538 13.3044 21.6538 14.1653C21.6538 14.9479 21.6538 15.6522 21.6538 16.4348C21.6538 16.7479 21.6538 17.1392 21.6538 17.4522V17.5305C21.6538 17.5305 21.6538 17.5305 21.7326 17.5305C22.3625 17.5305 22.9924 17.5305 23.6223 17.5305C23.7011 17.5305 23.7011 17.5305 23.7011 17.4522C23.7798 17.0609 23.8585 16.6696 23.9373 16.2783C23.9373 16.2 23.9373 16.1218 24.016 16.0435C24.0948 15.7305 24.1735 15.4957 24.1735 15.1826C24.2522 15.1044 24.2522 15.0261 24.2522 14.8696C24.331 14.6348 24.4097 14.4001 24.4097 14.1653C24.4885 13.8522 24.5672 13.5392 24.6459 13.2261C24.6459 13.0696 24.7247 12.9131 24.7247 12.7566C24.8034 12.6783 24.8034 12.5218 24.8034 12.3653C24.8822 12.0522 24.9609 11.6609 25.0396 11.3479C25.1184 11.1131 25.1971 10.8783 25.1971 10.6435C25.1971 10.5653 25.2759 10.487 25.2759 10.3305C25.3546 9.93919 25.4333 9.62612 25.5121 9.23482C25.5908 9.00004 25.5908 8.76526 25.6696 8.53048C25.7483 8.45221 25.7483 8.2957 25.7483 8.21744C25.7483 8.13918 25.827 7.98266 25.827 7.9044C25.9058 7.27831 26.5357 7.04353 27.0081 7.51309C27.0869 7.66962 27.1656 7.74788 27.1656 7.9044C27.1656 8.06092 27.2444 8.21744 27.2444 8.2957C27.2444 8.45222 27.2444 8.60875 27.3231 8.76527C27.3231 9.15658 27.4018 9.46962 27.4806 9.86092C27.4806 10.0957 27.4806 10.2522 27.5593 10.4087C27.5593 10.7218 27.6381 11.1131 27.7168 11.4261C27.7168 11.7392 27.7955 12.0522 27.8743 12.3653C27.8743 12.6 27.953 12.7566 27.953 12.9914C27.953 13.3827 28.0318 13.774 28.1105 14.087C28.1105 14.3218 28.1892 14.6348 28.1892 14.8696C28.1892 15.1044 28.268 15.3392 28.268 15.574C28.268 15.8087 28.3467 16.1218 28.4255 16.3566C28.4255 16.6696 28.5042 16.9827 28.5829 17.2957C28.5829 17.374 28.5829 17.374 28.5829 17.374C28.5829 17.4522 28.5829 17.4522 28.5829 17.5305C28.6617 18 28.6617 18.3914 28.7404 18.8609C28.8979 18.3914 29.0554 17.8435 29.1341 17.374C29.2129 17.0609 29.3703 16.6696 29.4491 16.2783C29.4491 16.2 29.5278 16.1218 29.5278 16.0435C29.6066 15.8087 29.6853 15.574 29.9215 15.4174C30.2365 15.3392 30.4727 15.3392 30.7089 15.574C30.8664 15.887 31.0239 16.1218 31.1814 16.4348C31.3389 16.8261 31.4963 17.1392 31.7325 17.5305C31.7325 17.5305 31.7325 17.5305 31.8113 17.5305C32.4412 17.5305 32.9924 17.5305 33.6223 17.5305C33.7011 17.5305 33.701 17.4522 33.701 17.374C33.701 16.8261 33.701 16.2783 33.701 15.7305C33.701 14.7914 33.701 13.8522 33.701 12.9131C33.6223 12.287 33.6223 11.5827 33.6223 10.9566ZM33.1499 11.5826C33.1499 11.5826 33.2286 11.5826 33.1499 11.5826C33.2286 11.5826 33.2286 11.5826 33.1499 11.5826C33.2286 11.5826 33.1499 11.5826 33.1499 11.5826Z" fill="#B7C0C4"/>
<path d="M67.0079 13.3043C67.0079 12.7565 67.0079 12.2086 67.0079 11.7391C67.0079 11.6608 67.0079 11.5826 67.0079 11.5043C67.0079 11.3478 67.0079 11.2695 67.0079 11.113C67.0079 10.7217 67.0079 10.4086 66.9292 10.0173V9.93908C66.9292 9.62604 66.8504 9.31298 66.7717 8.92168C66.7717 8.68689 66.693 8.45212 66.5355 8.21733C66.378 7.82603 66.2205 7.43472 65.9843 7.04342C65.9056 6.8869 65.8268 6.80864 65.7481 6.73038C65.5119 6.33908 65.1969 6.10428 64.8819 5.79124C64.8032 5.71298 64.7245 5.63473 64.567 5.55647C64.4095 5.47821 64.3308 5.32167 64.0945 5.32167C64.0158 5.24341 64.0158 5.24342 63.9371 5.16516C63.0709 4.6956 62.2048 4.53906 61.2599 4.53906C61.0237 4.53906 60.7875 4.53906 60.5512 4.53906C60.1575 4.53906 59.6851 4.61733 59.2914 4.69559H59.2127C58.7402 4.85212 58.189 5.00863 57.7953 5.32167C57.6378 5.39993 57.4804 5.47821 57.3229 5.63473C56.8504 5.94778 56.4567 6.41732 56.1418 6.88689C56.063 6.96515 55.9843 7.12169 55.9056 7.19995C55.7481 7.51299 55.5906 7.74776 55.5906 8.0608C55.5119 8.21732 55.4331 8.37385 55.4331 8.60864C55.3544 8.92168 55.2757 9.23473 55.2757 9.54778V9.62602C55.1969 9.93906 55.1969 10.1739 55.1969 10.4869C55.1182 10.8782 55.1182 11.3478 55.1182 11.7391V11.8173C55.1182 13.226 55.1182 14.5565 55.1182 15.9652C55.1182 16.513 55.1182 17.0608 55.1182 17.5304C55.1182 17.6086 55.1182 17.6869 55.2757 17.6869C55.8268 17.6869 56.378 17.6869 56.9292 17.6869C57.0079 17.6869 57.0867 17.6869 57.0867 17.6086C57.1654 17.1391 57.3229 16.7478 57.4016 16.2782C57.4804 16.0434 57.5591 15.8086 57.5591 15.5738C57.6379 15.3391 57.6378 15.1043 57.7166 14.8695C57.7953 14.6347 57.7953 14.4782 57.8741 14.2434C57.9528 13.9304 58.0315 13.5391 58.1103 13.1478C58.189 12.913 58.2678 12.5999 58.2678 12.3651C58.2678 12.2869 58.2678 12.2086 58.2678 12.2086C58.3465 11.9739 58.4253 11.7391 58.4253 11.5043C58.504 11.1913 58.5827 10.7999 58.6615 10.4869C58.7402 10.2521 58.7402 10.0173 58.819 9.86082C58.8977 9.54777 58.9764 9.15645 59.0552 8.84341C59.1339 8.76515 59.1339 8.60863 59.1339 8.45211C59.1339 8.37385 59.2127 8.29559 59.2127 8.21733C59.2914 7.82603 59.4489 7.66952 59.8426 7.59126C60.315 7.66952 60.4725 7.82603 60.4725 8.2956C60.4725 8.37386 60.4725 8.45211 60.4725 8.53037C60.4725 8.68689 60.4725 8.84342 60.5512 8.99994C60.63 9.54777 60.7087 10.0173 60.7875 10.5652C60.8662 11.1912 60.9449 11.8173 61.0237 12.4434C61.0237 12.5217 61.0237 12.6782 61.0237 12.7565C61.1024 13.1478 61.1024 13.5391 61.1812 13.9304C61.1812 14.0086 61.1812 14.0869 61.1812 14.1652C61.1812 14.3999 61.2599 14.713 61.2599 14.9478C61.2599 15.1043 61.3386 15.3391 61.3386 15.4956C61.3386 15.7304 61.4174 16.0434 61.4174 16.2782C61.4961 16.6695 61.4961 17.0608 61.5749 17.3739C61.5749 17.4521 61.5749 17.5304 61.5749 17.6086C61.6536 18.0782 61.7323 18.5478 61.7323 19.0173C61.8898 18.626 62.0473 18.2347 62.126 17.7652C62.2048 17.5304 62.2835 17.2956 62.3623 17.1391C62.441 16.9043 62.5197 16.5912 62.5985 16.3565V16.2782C62.756 15.8086 62.9134 15.7304 63.3859 15.7304C63.4646 15.7304 63.4646 15.7304 63.5434 15.8086C63.7796 15.9652 63.8583 16.1999 64.0158 16.4347C64.1733 16.6695 64.252 16.9826 64.4095 17.2173C64.4882 17.4521 64.6457 17.6086 64.7245 17.8434C64.7245 17.9217 64.8032 17.9217 64.8819 17.9217C65.5119 17.9217 66.1418 17.9217 66.7717 17.9217C66.8504 17.9217 66.9292 17.9217 66.8504 17.8434C66.8504 17.4521 66.8504 17.0608 66.8504 16.6695C67.0079 15.4956 67.0079 14.3999 67.0079 13.3043ZM67.0079 13.226C66.9292 13.226 66.9292 13.226 67.0079 13.226C66.9292 13.226 66.9292 13.226 67.0079 13.226ZM66.9292 15.7304C67.0079 15.7304 67.0079 15.7304 66.9292 15.7304C67.0079 15.7304 67.0079 15.7304 66.9292 15.7304C67.0079 15.7304 67.0079 15.7304 66.9292 15.7304ZM57.7953 5.39994C57.7166 5.39994 57.7166 5.39994 57.7953 5.39994C57.7166 5.39994 57.7166 5.39994 57.7953 5.39994ZM58.5827 9.78255C58.5827 9.78255 58.5827 9.70428 58.6615 9.62602C58.6615 9.70428 58.6615 9.78255 58.5827 9.78255Z" fill="#B7C0C4"/>
<path d="M76.2207 4.69576C75.6695 4.77403 75.2758 5.0088 74.8821 5.40011C74.7246 5.47837 74.6459 5.63488 74.4884 5.71315C74.1735 6.02619 73.9373 6.33925 73.7798 6.73055C73.6223 6.96533 73.5435 7.20011 73.4648 7.43489C73.3861 7.43489 73.4648 7.51316 73.3861 7.59143C73.3861 7.27838 73.3861 6.96533 73.4648 6.73055C73.4648 6.65229 73.4648 6.65228 73.4648 6.57402C73.4648 6.18272 73.5435 5.79142 73.5435 5.47837V5.40011C73.6223 5.16532 73.6223 5.16533 73.3861 5.16533C71.8113 5.16533 70.1577 5.16533 68.5829 5.16533C68.4254 5.16533 68.4254 5.24358 68.4254 5.32184C68.4254 9.46967 68.4254 13.6175 68.4254 17.7653C68.4254 17.9219 68.5042 17.9218 68.6617 17.9218C69.8428 17.9218 71.1026 17.9218 72.2837 17.9218C72.6774 17.9218 73.1498 17.9218 73.5435 17.9218C73.6223 17.9218 73.6223 17.8436 73.6223 17.8436C73.6223 17.061 73.6223 16.3566 73.6223 15.574C73.701 15.261 73.6223 15.0262 73.6223 14.7131C73.701 14.5566 73.6223 14.3219 73.701 14.1653C73.7798 13.9306 73.7798 13.6175 73.8585 13.3827C73.9372 13.3045 73.9372 13.3045 73.9372 13.2262C74.0947 12.9131 74.3309 12.6784 74.6459 12.4436C74.8821 12.2871 75.1183 12.2088 75.4333 12.1305C75.6695 12.0523 75.827 12.0523 76.0632 11.974C76.2995 11.974 76.4569 11.974 76.6931 11.974C76.8506 11.974 76.8506 11.8958 76.8506 11.8175C76.8506 11.5045 76.8506 11.1131 76.8506 10.8001C76.8506 10.0958 76.8506 9.31316 76.8506 8.60881C76.8506 7.43489 76.8506 6.26098 76.8506 5.08707C76.6144 4.53924 76.6144 4.53924 76.2207 4.69576ZM68.3467 11.1914C68.3467 11.1914 68.4254 11.1914 68.3467 11.1914C68.4254 11.1914 68.3467 11.1914 68.3467 11.1914ZM68.3467 11.5827C68.3467 11.5827 68.3467 11.5044 68.3467 11.5827C68.3467 11.5044 68.3467 11.5044 68.3467 11.5827Z" fill="#B7C0C4"/>
<path d="M46.378 10.3304C46.378 9.93908 46.2993 9.54778 46.2205 9.15647C46.2205 8.92169 46.1418 8.76516 46.063 8.60864C45.9843 8.37385 45.9056 8.06081 45.8268 7.82603C45.7481 7.59125 45.6693 7.43471 45.5906 7.27819C45.5118 7.12167 45.4331 7.04341 45.3544 6.88689C45.0394 6.33906 44.567 5.94777 44.0945 5.55647C43.937 5.39995 43.7008 5.24342 43.4646 5.16516C43.3859 5.16516 43.3859 5.0869 43.3071 5.0869C42.8347 4.85212 42.3622 4.69559 41.8898 4.61733C41.7323 4.61733 41.6536 4.53906 41.4961 4.53906C41.2599 4.61732 41.1024 4.61733 40.8662 4.61733C40.63 4.61733 40.3937 4.61733 40.1575 4.61733C39.2914 4.61733 38.4252 4.85213 37.6378 5.24343C37.5591 5.24343 37.4803 5.32168 37.4016 5.39994C36.8504 5.71298 36.378 6.10429 35.9056 6.65212C35.7481 6.8869 35.5118 7.12168 35.4331 7.35646C35.2756 7.59124 35.1969 7.82602 35.1181 8.13907C35.0394 8.29559 34.9607 8.53038 34.9607 8.6869C34.8819 8.99995 34.8032 9.31297 34.8032 9.62602V9.70428C34.7245 9.93907 34.7244 10.2521 34.7244 10.4869C34.6457 10.7217 34.7244 10.9565 34.7244 11.1912C34.6457 11.3478 34.7244 11.5825 34.7244 11.7391C34.7244 13.6173 34.7244 15.5738 34.7244 17.4521C34.7244 17.6086 34.7244 17.6869 34.9607 17.6869C36.2992 17.6869 37.6378 17.6869 39.0552 17.6869C39.3701 17.6869 39.6063 17.6869 39.9213 17.6869C40 17.6869 40.0788 17.6869 40.0788 17.5304C40.0788 17.1391 40.0788 16.7478 40.0788 16.3565C40.0788 15.5738 40.0788 14.7912 40.0788 14.0869C40.0788 13.3043 40.0788 12.4434 40.0788 11.6608C40.0788 10.9565 40.0788 10.3304 40.0788 9.62602V9.54778C40.1575 9.46952 40.0788 9.39124 40.0788 9.31298C40.0788 9.23472 40.0788 9.15647 40.0788 9.07821C40.0788 8.76516 40.1575 8.45212 40.4725 8.2956C40.63 8.21734 40.7874 8.21734 41.0237 8.2956C41.1811 8.37386 41.3386 8.53038 41.4174 8.6869C41.4174 8.76516 41.4174 8.76515 41.4174 8.84341C41.4961 8.99993 41.4961 9.23472 41.4961 9.39125C41.4961 9.46951 41.4961 9.54778 41.4961 9.54778C41.4961 9.62604 41.4961 9.62602 41.4961 9.70428C41.4961 10.3304 41.4961 11.0347 41.4961 11.6608C41.4961 11.8173 41.4961 11.8173 41.6536 11.8173C43.1496 11.8173 44.7245 11.8173 46.2205 11.8173C46.2993 11.8173 46.378 11.8173 46.378 11.7391C46.4567 11.3478 46.4567 10.8 46.378 10.3304ZM39.7638 9.15647C39.8426 9.23473 39.8426 9.23473 39.7638 9.15647C39.8426 9.23473 39.8426 9.23473 39.7638 9.15647ZM40 9.31298C39.9213 9.31298 39.9213 9.31298 40 9.31298C39.9213 9.31298 39.9213 9.31298 40 9.31298Z" fill="#B7C0C4"/>
<path d="M47.874 17.3739C47.874 17.5304 47.9527 17.6086 48.1102 17.6086C49.4488 17.6086 50.7874 17.6086 52.0472 17.6086C52.3622 17.6086 52.6771 17.6086 52.9134 17.6086C52.9921 17.6086 53.0708 17.6086 53.0708 17.4521C53.0708 17.0608 53.0708 16.5913 53.0708 16.2C53.0708 15.1826 53.0708 14.1652 53.0708 13.226C53.0708 12.3652 53.0708 11.5826 53.0708 10.7217C53.0708 10.0956 53.0708 9.39126 53.0708 8.76517C53.4645 8.76517 53.8582 8.76517 54.2519 8.76517C54.3307 8.76517 54.4094 8.76517 54.4094 8.76517C54.4094 7.74778 54.4094 6.65213 54.4094 5.63474C54.4094 5.55648 54.4094 5.55647 54.3307 5.55647C53.937 5.55647 53.4645 5.55647 53.0708 5.55647C53.0708 5.55647 53.0708 5.47821 52.9921 5.47821C52.9921 4.6956 52.9921 3.99125 52.9921 3.20865C52.9921 2.8956 52.9921 2.58255 52.9921 2.34777C52.9921 2.26951 52.9134 2.34777 52.9134 2.34777C51.1811 2.34777 49.5275 2.34777 47.7953 2.34777C47.7953 2.42603 47.7953 2.58255 47.7953 2.66081C47.7953 3.59994 47.7953 4.61734 47.7953 5.55647C47.4803 5.55647 47.1653 5.55647 46.8504 5.55647C46.6929 5.55647 46.6929 5.55646 46.6929 5.71298C46.6929 6.02602 46.6929 6.41734 46.6929 6.73038C46.6929 7.43473 46.6929 8.06082 46.6929 8.76517C46.7716 8.84343 46.7716 8.76517 46.8504 8.76517C47.1653 8.76517 47.4803 8.76517 47.7953 8.76517C47.874 11.5826 47.874 14.4782 47.874 17.3739ZM47.874 5.39994C47.874 5.39994 47.9527 5.39994 47.874 5.39994C47.9527 5.39994 47.874 5.39994 47.874 5.39994ZM46.8504 5.47821C46.7716 5.55647 46.7716 5.55647 46.8504 5.47821C46.7716 5.55647 46.7716 5.55647 46.8504 5.47821Z" fill="#B7C0C4"/>
<path d="M54.7245 22.3043C54.7245 22.1478 54.6457 22.1478 54.567 22.1478C54.3308 22.1478 54.0946 22.1478 53.8583 22.1478C53.5434 22.1478 53.3072 22.0695 53.2284 21.6782C53.2284 21.4434 53.2284 21.2086 53.1497 20.9739C53.1497 20.8173 53.1497 20.7391 53.1497 20.5826C53.1497 20.113 53.1497 19.6434 53.1497 19.1739C53.1497 19.0173 53.0709 19.0173 52.9922 19.0173C51.6536 19.0173 50.2363 19.0173 48.8977 19.0173C48.5828 19.0173 48.3465 19.0173 48.0316 19.0173C47.9528 19.0956 48.0316 19.0956 48.0316 19.1739C48.0316 19.8 48.0316 20.426 48.0316 21.0521C48.0316 21.2869 48.0316 21.5217 48.0316 21.7565C48.0316 21.9912 48.0316 22.226 48.0316 22.4608C48.0316 22.8521 48.1103 23.2434 48.2678 23.6347C48.2678 23.7913 48.3465 23.9478 48.4253 24.1043C48.5828 24.4173 48.819 24.6521 49.0552 24.8869C49.2914 25.1217 49.6064 25.2782 49.9213 25.3565C50.0788 25.4347 50.1576 25.4347 50.315 25.4347C50.8662 25.513 51.4174 25.513 51.9686 25.5913C52.9135 25.5913 53.7796 25.5913 54.7245 25.5913C54.8032 25.5913 54.8032 25.513 54.8032 25.4347C54.6458 24.3391 54.6457 23.3217 54.7245 22.3043Z" fill="#B7C0C4"/>
<path d="M73.5434 24.4175C73.5434 23.1653 73.5434 21.9914 73.5434 20.7392C73.5434 20.2696 73.5434 19.7218 73.5434 19.2522C73.5434 19.0957 73.4646 19.0957 73.3072 19.0957C71.7324 19.0957 70.0788 19.0957 68.504 19.0957C68.4253 19.0957 68.4253 19.0957 68.3465 19.0957C68.2678 19.174 68.3465 19.174 68.3465 19.2522C68.3465 19.8783 68.3465 20.4261 68.3465 21.0522C68.3465 21.6001 68.3465 22.1479 68.3465 22.6174V22.6957C68.3465 23.5566 68.3465 24.4174 68.3465 25.2783C68.3465 25.3566 68.3465 25.3566 68.3465 25.4348C68.4253 25.5131 68.4253 25.4348 68.504 25.4348C69.4489 25.4348 70.3938 25.4348 71.3387 25.4348C72.0473 25.4348 72.756 25.4348 73.4646 25.4348C73.5434 25.3566 73.4646 25.3566 73.4646 25.2783C73.5434 25.0435 73.5434 24.7305 73.5434 24.4175Z" fill="#B7C0C4"/>
<path d="M20.1574 18.7043C18.5038 18.7043 16.7715 18.7043 15.118 18.7043H15.0393C14.9605 18.7043 14.9605 18.7044 14.9605 18.7826C14.9605 19.0957 14.9605 19.3304 14.9605 19.6435C14.8818 19.9565 14.8818 20.1913 14.803 20.5044C14.7243 20.7391 14.5668 20.8957 14.3306 21.0522C14.3306 21.0522 14.3306 21.0522 14.2518 21.0522C14.0156 21.1304 13.7794 21.1304 13.5432 21.2087C13.3857 21.2087 13.307 21.2087 13.307 21.0522C13.307 20.9739 13.3857 20.8957 13.307 20.8174C13.307 20.1913 13.307 19.5652 13.307 18.9391C13.307 18.7826 13.2282 18.7826 13.1495 18.7826C11.9684 18.7826 10.7085 18.7826 9.52744 18.7826C9.055 18.7826 8.58254 18.7826 8.1101 18.7826C8.03136 18.7826 7.95264 18.7826 7.95264 18.9391C7.95264 19.3304 7.95264 19.6435 7.95264 20.0348V20.1131C7.95264 20.2696 7.95264 20.3478 7.95264 20.5044C7.95264 20.6609 7.95264 20.7391 7.95264 20.8957C7.95264 21.0522 7.95264 21.2087 7.95264 21.3652C7.95264 22.0696 7.95264 22.7739 7.95264 23.4783C7.95264 24.1826 7.95264 24.8087 7.95264 25.5131C7.95264 25.5913 7.95264 25.5913 8.03138 25.5913H8.1101C10.866 25.5913 13.7007 25.6696 16.4566 25.5131C17.0077 25.5131 17.5589 25.4348 18.1101 25.2C18.74 24.9652 19.2912 24.6522 19.6849 24.0261C19.8424 23.8696 19.9211 23.6348 19.9999 23.4C20.2361 22.9304 20.3148 22.4609 20.3936 21.913C20.3936 21.8348 20.3936 21.7565 20.3936 21.6783V21.6C20.3936 21.5217 20.3936 21.3652 20.3936 21.287C20.4723 21.2087 20.3936 21.1304 20.3936 21.0522C20.3936 20.8174 20.3936 20.6609 20.3936 20.4261C20.3936 19.8783 20.3936 19.4087 20.4723 18.8609C20.3936 18.7044 20.3148 18.7043 20.1574 18.7043Z" fill="#B7C0C4"/>
<path d="M9.37034 16.7477C9.44908 16.7477 9.52782 16.7477 9.37034 16.7477C9.44908 16.1216 9.44908 15.6521 9.44908 15.1042C9.44908 14.3999 9.44908 13.7738 9.44908 13.0695C9.44908 12.2086 9.44908 11.3477 9.44908 10.4086C9.44908 9.93903 9.44908 9.46947 9.44908 8.92164C9.44908 8.84338 9.44908 8.76514 9.37034 8.76514C8.81916 8.76514 8.34672 8.76514 7.79554 8.76514C7.7168 8.8434 7.79554 8.99991 7.79554 9.07818C7.79554 9.15644 7.79554 9.23469 7.79554 9.31295C7.79554 10.0173 7.79554 10.7217 7.79554 11.426C7.79554 11.5043 7.79553 11.5825 7.71679 11.5825C7.55931 11.5825 7.40185 11.6608 7.24437 11.5825C7.24437 10.7216 7.24437 9.78251 7.24437 8.92164C7.24437 8.84338 7.24436 8.76514 7.16562 8.76514C6.69318 8.76514 6.14201 8.76514 5.66957 8.76514C5.59083 8.76514 5.59082 8.76512 5.59082 8.92164C5.59082 9.46947 5.59082 9.93904 5.59082 10.4869C5.59082 11.426 5.59082 12.4434 5.59082 13.3825V13.4608C5.59082 13.6173 5.59082 13.6956 5.59082 13.8521V13.9303C5.59082 14.7912 5.59082 15.7304 5.59082 16.5912C5.59082 16.6695 5.66955 16.7477 5.74829 16.7477C6.22073 16.7477 6.69318 16.7477 7.16562 16.7477C7.24436 16.7477 7.32309 16.7477 7.32309 16.5912C7.32309 15.7304 7.32309 14.7912 7.32309 13.9303C7.32309 13.7738 7.32309 13.539 7.32309 13.3825C7.48057 13.3825 7.63806 13.3825 7.79554 13.3825C7.79554 14.4782 7.79554 15.5738 7.79554 16.6695C8.34672 16.7477 8.8979 16.7477 9.37034 16.7477ZM7.24437 13.4608C7.24437 13.4608 7.32309 13.3825 7.40183 13.3825C7.32309 13.3825 7.32311 13.3825 7.24437 13.4608Z" fill="#B7C0C4"/>
<path d="M13.071 15.1826C12.6773 15.1826 12.3623 15.1826 11.9686 15.1826C11.9686 14.6348 11.9686 14.0087 11.9686 13.4609C12.2836 13.4609 12.5985 13.4609 12.9135 13.4609C12.9922 13.4609 13.071 13.4609 13.071 13.3044C13.071 12.9131 13.071 12.4435 13.071 12.0522C13.071 11.9739 13.071 11.8957 12.9135 11.9739C12.5985 11.9739 12.2836 11.9739 11.9686 11.9739C11.9686 11.5044 11.9686 10.9566 11.9686 10.487C12.2836 10.487 12.5985 10.487 12.9922 10.487C13.071 10.487 13.071 10.487 13.071 10.3305C13.071 9.86092 13.071 9.39134 13.071 9.00004C13.071 8.92178 13.071 8.84351 12.9922 8.84351C12.1261 8.84351 11.26 8.84351 10.3151 8.84351C10.2363 8.84351 10.2363 8.84351 10.2363 8.92177C10.2363 9.39134 10.2363 9.8609 10.2363 10.4087C10.2363 11.2696 10.2363 12.0522 10.2363 12.9131C10.2363 13.774 10.2363 14.6348 10.2363 15.5739C10.2363 15.9653 10.2363 16.3565 10.2363 16.6696C10.2363 16.7479 10.2363 16.7479 10.3151 16.7479C11.26 16.7479 12.1261 16.7479 13.071 16.7479C13.1497 16.7479 13.1497 16.7479 13.1497 16.5914C13.1497 16.1218 13.1497 15.7305 13.1497 15.2609C13.1497 15.1826 13.1497 15.1826 13.071 15.1826ZM11.8899 13.4609C11.9686 13.4609 11.9686 13.4609 11.8899 13.4609C11.9686 13.4609 11.9686 13.4609 11.8899 13.4609C11.9686 13.4609 11.8899 13.4609 11.8899 13.4609ZM11.8899 10.4087C11.8899 10.4087 11.9686 10.4087 11.8899 10.4087C11.9686 10.4087 11.8899 10.4087 11.8899 10.4087Z" fill="#B7C0C4"/>
</svg>
