<svg width="24" height="24" viewBox="0 0 24 24" fill="none" xmlns="http://www.w3.org/2000/svg">
<g clip-path="url(#clip0)">
<path d="M12.0019 20.251C11.5879 20.251 11.2519 19.915 11.2519 19.501V12.312L9.53193 14.032C9.38993 14.174 9.20193 14.252 9.00193 14.252C8.80193 14.252 8.61293 14.174 8.47193 14.032C8.17993 13.74 8.17993 13.264 8.47193 12.971L11.4719 9.97095C11.5419 9.90095 11.6239 9.84595 11.7169 9.80795C11.7249 9.80495 11.7329 9.80195 11.7419 9.79895C11.8279 9.76695 11.9139 9.75195 12.0019 9.75195C12.0909 9.75195 12.1789 9.76795 12.2629 9.79995C12.2699 9.80195 12.2769 9.80495 12.2829 9.80695C12.3799 9.84695 12.4619 9.90195 12.5329 9.97295L15.5319 12.972C15.8239 13.264 15.8239 13.74 15.5319 14.033C15.3899 14.175 15.2019 14.253 15.0019 14.253C14.8019 14.253 14.6129 14.175 14.4719 14.033L12.7519 12.313V19.502C12.7519 19.915 12.4159 20.251 12.0019 20.251Z" fill="#85878A"/>
<path d="M2.25195 24.001C1.01095 24.001 0.00195312 22.992 0.00195312 21.751V8.25098C0.00195312 7.87798 0.0959531 7.50798 0.274953 7.17898L2.65995 1.35698C3.02795 0.528977 3.83695 0.000976562 4.72495 0.000976562H19.277C20.165 0.000976562 20.973 0.525977 21.334 1.33698L23.662 7.06398C23.885 7.42198 24.003 7.83098 24.003 8.25098V21.751C24.003 22.992 22.994 24.001 21.753 24.001H2.25195ZM2.25195 7.50098C1.83795 7.50098 1.50195 7.83698 1.50195 8.25098V21.751C1.50195 22.165 1.83795 22.501 2.25195 22.501H21.752C22.166 22.501 22.502 22.165 22.502 21.751V8.25098C22.502 7.83698 22.166 7.50098 21.752 7.50098H2.25195ZM21.61 6.00098L19.953 1.92398C19.842 1.67498 19.569 1.50098 19.277 1.50098H12.752V6.00098H21.61ZM11.252 6.00098V1.50098H4.72495C4.42895 1.50098 4.15895 1.67598 4.03895 1.94598L2.37795 6.00098H11.252Z" fill="#85878A"/>
</g>
<defs>
<clipPath id="clip0">
<rect width="24" height="24" fill="white"/>
</clipPath>
</defs>
</svg>
