<svg width="82" height="22" viewBox="0 0 82 22" fill="none" xmlns="http://www.w3.org/2000/svg">
<path d="M57.9164 21.0266C57.6581 20.9617 57.3998 20.9617 57.1415 20.8968C55.7856 20.7021 54.4943 20.2479 53.3967 19.3393C52.4927 18.5606 51.9116 17.5222 51.9116 16.2892C51.9116 11.4868 51.9116 6.68445 51.847 1.88209C51.847 1.62251 51.8471 1.62251 51.5888 1.62251C51.0722 1.62251 50.6203 1.62251 50.1038 1.62251C50.0392 1.62251 49.9746 1.6225 49.9746 1.49271C49.9746 1.36291 50.0392 1.36293 50.1683 1.36293C52.4282 1.36293 54.688 1.36293 56.8833 1.36293C56.9478 1.36293 57.0124 1.29802 57.077 1.49271C57.077 1.6225 57.0124 1.62251 56.8833 1.62251C56.3667 1.62251 55.8502 1.62251 55.2691 1.62251C55.14 1.62251 55.0754 1.6874 55.0754 1.81719C55.0754 7.00893 55.0754 12.2007 55.14 17.3924C55.14 18.1712 55.4628 18.8201 55.9148 19.4691C56.3667 20.1181 57.0124 20.5075 57.7872 20.6372C59.1431 20.8968 60.499 20.767 61.7258 19.9883C62.7589 19.3393 63.4691 18.3659 63.8565 17.1977C63.8565 17.1328 63.8565 17.0679 63.8565 16.9381C63.8565 11.8762 63.8565 6.87914 63.8565 1.81719C63.8565 1.6225 63.7919 1.62251 63.6628 1.62251C63.0817 1.62251 62.436 1.62251 61.8549 1.62251C61.7904 1.62251 61.6612 1.6225 61.6612 1.49271C61.6612 1.36291 61.7904 1.36293 61.8549 1.36293C66.5037 1.36293 71.088 1.36293 75.7368 1.36293C76.9636 1.36293 78.1904 1.36293 79.4171 1.36293C79.5463 1.36293 79.6108 1.42782 79.6108 1.55761C79.6108 3.7641 79.6108 5.9706 79.6108 8.17709C79.6108 8.24198 79.6754 8.30687 79.6108 8.37177C79.4817 8.43666 79.4817 8.37176 79.4171 8.24197C79.3526 7.5281 79.288 6.81425 79.0943 6.10038C78.836 5.19183 78.5132 4.28327 77.9321 3.50451C77.2219 2.59596 76.1888 2.07678 75.0911 1.81719C74.3163 1.6225 73.477 1.55761 72.6376 1.55761C72.1211 1.55761 71.54 1.55761 71.0234 1.55761C70.8943 1.55761 70.8943 1.55762 70.8943 1.68741C70.8943 4.54287 70.8943 7.39831 70.8943 10.2538C70.8943 10.3187 70.8943 10.3836 71.0234 10.3836C71.8628 10.4485 72.7022 10.4485 73.477 10.124C74.2518 9.7995 74.7038 9.21543 74.962 8.43667C75.0912 7.98239 75.2203 7.46321 75.2849 7.00893C75.2849 6.94404 75.2203 6.81425 75.414 6.81425C75.5431 6.81425 75.4785 6.94404 75.4785 7.00893C75.4785 9.47501 75.4785 11.9411 75.4785 14.3423V14.4072C75.4785 14.4721 75.4785 14.537 75.414 14.537C75.3494 14.537 75.2849 14.4721 75.2849 14.4072C75.2203 14.0178 75.1557 13.5635 75.0266 13.1741C74.5746 11.2921 72.8313 10.5783 71.4108 10.7081C71.2171 10.7081 71.0234 10.7081 70.8943 10.773C70.8297 10.9027 70.8943 11.0974 70.8943 11.2272C70.8943 14.1476 70.8943 17.0679 70.8943 19.9883C70.8943 20.183 70.9589 20.2479 71.088 20.2479C71.9919 20.2479 72.8959 20.3128 73.8644 20.2479C76.3825 20.0532 78.1904 18.8201 79.2234 16.4839C79.6754 15.4455 79.8045 14.3423 79.8691 13.239C79.8691 13.1092 79.8691 13.0443 80.0628 13.0443C80.1274 13.1092 80.0628 13.1741 80.0628 13.239C80.0628 15.5104 80.0628 17.8467 80.0628 20.1181C80.0628 20.3777 80.0628 20.3777 79.8045 20.3777C78.5132 20.3777 77.2219 20.3777 75.9305 20.3777C72.7667 20.3777 69.6675 20.3777 66.5037 20.3777C66.4392 20.3777 66.3101 20.3777 66.2455 20.3777C66.1809 20.3777 66.0518 20.3777 66.0518 20.2479C66.0518 20.1181 66.1809 20.1181 66.2455 20.1181C66.3746 20.1181 66.5683 20.1181 66.6974 20.1181C66.9557 20.1181 67.1494 20.1181 67.4077 20.1181C67.5368 20.1181 67.6014 20.0532 67.6014 19.9234C67.6014 19.8585 67.6014 19.7936 67.6014 19.7936C67.6014 13.8231 67.6014 7.85259 67.6014 1.88209C67.6014 1.8172 67.6014 1.81719 67.6014 1.75229C67.6014 1.5576 67.5368 1.55761 67.3431 1.55761C66.8911 1.55761 66.3746 1.55761 65.9227 1.55761C65.4707 1.55761 64.9541 1.55761 64.5022 1.55761C64.4376 1.55761 64.373 1.55761 64.3085 1.62251C64.2439 1.7523 64.2439 1.8172 64.2439 1.94699C64.2439 6.74935 64.2439 11.6166 64.2439 16.419C64.2439 17.003 64.1148 17.5222 63.8565 17.9765C63.0817 19.534 61.8549 20.4426 60.1762 20.832C59.9179 20.8968 59.5951 20.8968 59.3368 20.8968C59.2722 20.8968 59.2077 20.8968 59.2077 20.8968C59.1431 20.8319 59.0785 20.8968 59.014 20.8968C58.8848 20.8968 58.7557 20.8968 58.6266 20.8968C58.4974 20.8968 58.4329 20.8968 58.3037 20.8968C58.11 21.0266 57.9809 21.0266 57.9164 21.0266Z" fill="#B7C0C4"/>
<path d="M48.0378 0.84375C48.1024 0.908647 48.1024 0.908659 48.1024 1.03845C48.1024 3.24494 48.1024 5.45142 48.1024 7.65791C48.1024 7.72281 48.1669 7.78771 48.0378 7.78771C47.9087 7.78771 47.9732 7.72281 47.9087 7.65791C47.5213 5.9057 46.8756 4.28329 45.7134 2.92045C44.874 1.947 43.9055 1.36292 42.6142 1.16823C41.2583 0.973544 40.2252 1.36292 39.4504 2.72575C38.9339 3.56941 38.6756 4.54287 38.4819 5.51632C38.0945 7.46323 38.0945 9.47503 38.0945 11.4219C38.0945 12.655 38.159 13.888 38.2882 15.121C38.4173 16.3541 38.6756 17.5871 39.2567 18.7553C39.6441 19.534 40.2252 20.183 41.0646 20.5724C41.5811 20.767 42.0976 20.832 42.6142 20.7671C43.1953 20.7022 43.7764 20.6373 44.2929 20.3777C45.1969 19.9234 45.7779 19.2095 46.0362 18.2361C46.0362 18.1712 46.0362 18.1063 46.0362 18.0414C46.0362 16.3541 46.0362 14.6668 46.0362 13.0444C46.0362 12.8497 45.9717 12.8497 45.8425 12.8497C45.3905 12.8497 44.9386 12.8497 44.5512 12.8497C44.4866 12.8497 44.422 12.8497 44.422 12.7199C44.422 12.5901 44.4866 12.5901 44.5512 12.5901C46.6173 12.5901 48.6835 12.5901 50.685 12.5901C50.7496 12.5901 50.8142 12.5901 50.8142 12.7199C50.8142 12.8497 50.7496 12.8497 50.685 12.8497C50.2331 12.8497 49.8457 12.8497 49.3937 12.8497C49.2646 12.8497 49.2 12.9146 49.2 13.0444C49.2 15.5104 49.2 17.9765 49.2 20.4426C49.2 20.5075 49.2 20.5075 49.2 20.5724C49.2 20.6373 49.2 20.7022 49.1354 20.7022C49.0709 20.7022 49.0063 20.6373 49.0063 20.5724C49.0063 20.5075 49.0063 20.5075 48.9417 20.4426C48.6189 19.7936 47.9732 19.4691 47.1984 19.534C46.3591 19.5989 45.6488 19.9883 44.874 20.3128C44.2929 20.5724 43.6472 20.832 43.0016 20.9617C42.1622 21.0915 41.3874 21.0267 40.6126 20.832C38.9339 20.4426 37.6425 19.4691 36.6095 18.0414C35.4472 16.4839 34.8661 14.7966 34.5433 12.9146C34.4142 12.0709 34.3496 11.2272 34.3496 10.3836C34.4142 8.82606 34.8016 7.33342 35.5118 5.97059C36.4157 4.28327 37.6425 2.85555 39.2567 1.8172C40.0315 1.36292 40.8709 1.03845 41.7748 0.973551C42.485 0.908655 43.1307 1.10334 43.7764 1.23313C44.3575 1.36293 44.874 1.62251 45.3905 1.8172C46.0362 2.07679 47.1339 1.81721 47.5858 1.23313C47.6504 1.10334 47.7795 1.03844 47.715 0.908651C47.9732 0.843754 47.9732 0.84375 48.0378 0.84375Z" fill="#B7C0C4"/>
<path d="M79.9983 20.5724C77.4802 20.5724 74.9621 20.5724 72.444 20.5724C70.3133 20.5724 68.2471 20.5724 66.1164 20.5724C66.0519 20.5724 65.9873 20.6373 65.9227 20.5075C65.9227 20.3777 65.9227 20.3128 66.0519 20.3128C66.5038 20.3128 66.9558 20.3128 67.3432 20.3128C67.4723 20.3128 67.4723 20.3128 67.4723 20.183V20.1181C67.4723 14.0178 67.4723 7.9824 67.4723 1.8821C67.4723 1.68741 67.4078 1.62252 67.2141 1.62252C66.181 1.62252 65.0834 1.62252 64.0503 1.62252C64.1149 1.55762 64.1794 1.55762 64.244 1.55762C65.2771 1.55762 66.2456 1.55762 67.2786 1.55762C67.4723 1.55762 67.4723 1.62251 67.4723 1.7523C67.4723 7.85259 67.4723 13.9529 67.4723 20.0532C67.4723 20.2479 67.4078 20.3128 67.2141 20.3128C66.8267 20.3128 66.4393 20.3128 66.0519 20.3128C65.9873 20.3128 65.9227 20.3128 65.9227 20.3777C65.9227 20.5075 65.9873 20.4426 66.0519 20.4426C66.1164 20.4426 66.1164 20.4426 66.181 20.4426C70.6361 20.4426 75.0912 20.4426 79.5464 20.4426C79.9338 20.4426 79.8692 20.5075 79.8692 20.1181C79.8692 17.7818 79.8692 15.4455 79.8692 13.1092C79.8692 13.1092 79.8692 13.1092 79.9337 13.1092C79.9983 15.6402 79.9983 18.1063 79.9983 20.5724Z" fill="#B7C0C4"/>
<path d="M58.4331 20.9617C58.5622 20.9617 58.7559 20.9617 58.8851 20.9617C58.7559 21.0266 58.6268 21.0266 58.4331 20.9617Z" fill="#B7C0C4"/>
<path d="M58.4326 20.9618C58.368 21.0267 58.2389 21.0267 58.1743 21.0267C58.2389 20.8969 58.368 20.9618 58.4326 20.9618Z" fill="#B7C0C4"/>
<path d="M1.74316 1.62244C1.74316 1.55754 1.74316 1.49263 1.74316 1.42773C1.74316 1.42773 1.74315 1.42773 1.80772 1.42773C1.80772 1.49263 1.80773 1.55754 1.74316 1.62244Z" fill="#B7C0C4"/>
<path d="M58.8848 21.0267C58.8848 20.9618 58.8848 20.9618 58.8848 21.0267C58.9493 21.0267 59.0139 20.9618 59.0785 21.0267C59.0139 21.0267 58.9493 21.0267 58.8848 21.0267Z" fill="#B7C0C4"/>
<path d="M1.74316 1.62247C1.74316 1.55757 1.74316 1.49267 1.74316 1.42777C1.80773 1.36287 1.87229 1.42777 1.93686 1.42777C4.13213 1.42777 6.39197 1.42777 8.58724 1.42777C8.65181 1.42777 8.71639 1.36288 8.78096 1.49267C8.84552 1.55757 8.78095 1.68737 8.65181 1.68737C8.13528 1.68737 7.61874 1.68737 7.03764 1.68737C8.71638 6.23014 10.3951 10.7729 12.0739 15.3806C12.1384 15.3806 12.1384 15.2508 12.1384 15.1859C13.5589 10.7729 15.0439 6.35993 16.3998 1.94695C16.3998 1.88206 16.3998 1.88205 16.4644 1.81715C16.529 1.68736 16.4644 1.68737 16.3353 1.68737C15.8833 1.68737 15.3668 1.68737 14.9148 1.68737C14.8502 1.68737 14.7211 1.75226 14.7211 1.55757C14.7211 1.42778 14.7857 1.42777 14.9148 1.42777C16.077 1.42777 17.1746 1.42777 18.3369 1.42777C18.4014 1.42777 18.5306 1.42778 18.5306 1.55757C18.5306 1.68736 18.466 1.68737 18.3369 1.68737C17.8849 1.68737 17.4329 1.68737 16.9809 1.68737C16.7872 1.68737 16.7872 1.75226 16.7227 1.88205C15.5605 5.45138 14.4628 9.0207 13.3006 12.59C12.4613 15.3157 11.5573 17.9764 10.718 20.7021C10.718 20.767 10.6534 20.767 10.6534 20.8319C10.4597 20.2478 10.266 19.7287 10.0723 19.1446C8.00615 13.3688 5.94001 7.59296 3.87386 1.81715C3.8093 1.68736 3.74474 1.62247 3.6156 1.62247C2.96993 1.62247 2.38883 1.62247 1.74316 1.62247Z" fill="#B7C0C4"/>
<path d="M32.7996 8.56633C32.154 5.97046 30.8626 3.89378 28.6673 2.33625C27.5697 1.55749 26.2784 1.03831 24.9225 0.973418C23.4374 0.908521 22.0815 1.36279 20.8547 2.14155C19.2406 3.1799 18.0784 4.60763 17.3036 6.35984C16.6579 7.72267 16.2705 9.15041 16.2705 10.4483C16.2705 12.0708 16.5288 13.4985 16.9807 14.8613C17.5618 16.5486 18.4658 18.1061 19.8862 19.2743C21.6295 20.702 23.6311 21.2212 25.8264 20.8318C27.1823 20.6371 28.3445 19.9882 29.3776 19.0147C30.7981 17.7168 31.7666 16.0944 32.3477 14.2773C32.9933 12.3952 33.2516 10.4483 32.7996 8.56633ZM29.4422 11.6814C29.4422 12.7197 29.3776 13.823 29.2484 14.8613C29.0547 16.1593 28.7965 17.4572 28.1508 18.6253C27.376 19.9882 26.2784 20.6371 24.7288 20.6371C23.954 20.6371 23.2437 20.5722 22.5335 20.1829C21.6941 19.7935 21.1776 19.0796 20.8547 18.236C20.4673 17.3274 20.2737 16.354 20.08 15.3156C19.8863 14.0177 19.8217 12.5899 19.8217 11.1622C19.8217 9.73447 19.8217 8.30674 20.08 6.94391C20.2737 5.64597 20.5965 4.34805 21.2421 3.2448C21.7587 2.27135 22.5335 1.55749 23.5666 1.2979C25.439 0.843624 27.1823 1.42768 28.2154 3.37459C28.7319 4.28314 28.9902 5.32149 29.1839 6.35984C29.4422 8.11205 29.4422 9.86427 29.4422 11.6814Z" fill="#B7C0C4"/>
</svg>
